<svg xmlns="http://www.w3.org/2000/svg" height="30" width="40" viewBox="-45 -28.1 390 168.6"><path d="M299.1 51.9c.1.3.1.5.1.8 0-.3-.1-.5-.1-.8M150 0C66.7 0 0 25 0 56.2c0 31.1 67.3 56.2 150 56.2s150-25.2 150-56.2C300 25.2 232.7 0 150 0" fill="#d3d2d2"/><radialGradient gradientUnits="userSpaceOnUse" gradientTransform="matrix(647.6554 0 0 -631.5305 523294.94 377163.09)" r="1" cy="596.238" cx="-807.754" id="a"><stop offset="0" stop-color="#00050d"/><stop offset=".7" stop-color="#051125"/><stop offset=".904" stop-color="#173e7e"/><stop offset=".955" stop-color="#4ca9e3"/><stop offset="1" stop-color="#4ca9e3"/></radialGradient><path d="M2.3 56.2c0 29.8 66.1 54 147.7 54s147.7-24.1 147.7-54c0-29.8-66.1-54-147.7-54S2.3 26.4 2.3 56.2" fill="url(#a)"/><linearGradient gradientTransform="matrix(0 -114.3202 -114.3202 0 67591.914 -92852.281)" y2="589.941" x2="-812.207" y1="589.941" x1="-813.207" gradientUnits="userSpaceOnUse" id="b"><stop offset="0" stop-color="#08142e"/><stop offset=".809" stop-color="#17326e"/><stop offset="1" stop-color="#0d69a9"/></linearGradient><path d="M13.4 56.2c0 2 .4 4 1.2 6-.3-1.3-.5-2.6-.5-3.9 0-24.7 61.1-44.7 136.6-44.7 69.4 0 126.7 16.9 135.4 38.9-5.8-23.1-64.5-41.2-136.1-41.2-75.4-.1-136.6 20.1-136.6 44.9" fill="url(#b)"/><linearGradient gradientTransform="matrix(0 -114.3306 -114.3306 0 67599.969 -92860.68)" y2="589.942" x2="-812.207" y1="589.942" x1="-813.207" gradientUnits="userSpaceOnUse" id="c"><stop offset="0" stop-color="#08142e"/><stop offset=".809" stop-color="#17326e"/><stop offset="1" stop-color="#0d69a9"/></linearGradient><path d="M291.5 56.2c0 27.2-63.4 49.3-141.5 49.3C80.4 105.5 22.6 88 10.7 65c9.1 24 68.4 42.5 140.3 42.5 78.2 0 141.5-21.9 141.5-48.8 0-2.7-.7-5.4-1.9-8 .6 1.7.9 3.6.9 5.5" fill="url(#c)"/><linearGradient gradientTransform="matrix(0 -79.21 -79.21 0 46656.984 -64467.785)" y2="586.812" x2="-814.072" y1="586.812" x1="-815.072" gradientUnits="userSpaceOnUse" id="d"><stop offset="0" stop-color="#08142e"/><stop offset=".809" stop-color="#17326e"/><stop offset="1" stop-color="#0d69a9"/></linearGradient><path d="M176.4 61c-3.2 3.3-3.4 7.6-1.3 9.5.7.7 1.6 1 2.5 1.1-1.4-1.7-2-5.1-.3-7.7-.3-.8-.4-1.7-.2-2.6 0-.2-.1-.4-.3-.4-.2-.1-.3 0-.4.1" fill="url(#d)"/><linearGradient gradientTransform="matrix(0 -80.2656 -80.2656 0 47321.023 -65321.43)" y2="586.946" x2="-813.992" y1="586.946" x1="-814.992" gradientUnits="userSpaceOnUse" id="e"><stop offset="0" stop-color="#08142e"/><stop offset=".809" stop-color="#17326e"/><stop offset="1" stop-color="#0d69a9"/></linearGradient><path d="M209.1 68c0 .5.2 1.4.3 2.1.2-.3.3-.6.5-1 .1-.3.1-.3-.1-.4-.3-.1-.7-.4-.7-.6-.1 0-.1 0 0-.1z" fill="url(#e)"/><linearGradient gradientTransform="rotate(-90 -8285.101 -51588.505) scale(73.5277)" y2="586.024" x2="-814.541" y1="586.024" x1="-815.541" gradientUnits="userSpaceOnUse" id="f"><stop offset="0" stop-color="#08142e"/><stop offset=".809" stop-color="#17326e"/><stop offset="1" stop-color="#0d69a9"/></linearGradient><path d="M212.9 57.2c1.1 1 1.7 2.2 1.8 3.4 0 .5.5.6.8.1.1-.1.2-.3.3-.5-.1-.1-.2-.2-.3-.4-.4-.5-1.5-1.6-2.6-2.6z" fill="url(#f)"/><linearGradient gradientTransform="matrix(0 -76.0038 -76.0038 0 44737.418 -61875.711)" y2="586.382" x2="-814.328" y1="586.382" x1="-815.328" gradientUnits="userSpaceOnUse" id="g"><stop offset="0" stop-color="#08142e"/><stop offset=".809" stop-color="#17326e"/><stop offset="1" stop-color="#0d69a9"/></linearGradient><path d="M169 55.2c.8 1.2 1.2 2.8 1.2 4.9 0 .5.4.5.6.1.1-.2.3-.4.4-.6-.5-1.9-1.5-3.7-2.2-4.4z" fill="url(#g)"/><linearGradient gradientTransform="matrix(0 -80.1365 -80.1365 0 47236.438 -65217.027)" y2="586.93" x2="-814.002" y1="586.93" x1="-815.002" gradientUnits="userSpaceOnUse" id="h"><stop offset="0" stop-color="#08142e"/><stop offset=".809" stop-color="#17326e"/><stop offset="1" stop-color="#0d69a9"/></linearGradient><path d="M198.3 66.2c-3 3.6-4.6 7.3-4.6 10.9 0 1.3.5 2.9 1.6 3.4.4.2.7.3 1.1.4-.1-.5-.2-1-.2-1.4 0-3.7 1.1-7.4 4.1-11.1 3.6-4.4 7.4-6.6 10-5.4-.1-1-.6-1.8-1.7-2.3-.5-.2-1-.3-1.6-.3-2.6 0-5.8 2.2-8.7 5.8" fill="url(#h)"/><linearGradient gradientTransform="matrix(0 -80.1195 -80.1195 0 47156.973 -65203.328)" y2="586.928" x2="-814.003" y1="586.928" x1="-815.003" gradientUnits="userSpaceOnUse" id="i"><stop offset="0" stop-color="#08142e"/><stop offset=".809" stop-color="#17326e"/><stop offset="1" stop-color="#0d69a9"/></linearGradient><path d="M138.9 58.5c-4 1.5-8 3.9-10.8 7.6-3.2 4.2-4 9.3-1.9 12.3.5.7 1.1 1.2 1.8 1.5-1.1-3.5-.3-8.2 2.4-11.8 2.8-3.7 5.9-5.1 9.4-6.7.5-.2.5-.5.4-.9-.2-.7-.6-2.5-.8-2.9.1.5 0 .8-.5.9" fill="url(#i)"/><linearGradient gradientTransform="rotate(-90 -8947.838 -55812.386) scale(79.5717)" y2="586.858" x2="-814.045" y1="586.858" x1="-815.045" gradientUnits="userSpaceOnUse" id="j"><stop offset="0" stop-color="#08142e"/><stop offset=".809" stop-color="#17326e"/><stop offset="1" stop-color="#0d69a9"/></linearGradient><path d="M168.9 69.8c-3.7 5.7-7.2 11.2-10.9 17-.2.3-.4.4-.7.5H150c-.3 0-.4-.1-.5-.3.2.9.5 2.5.6 2.9.1.3.3.4.5.4h8.3c.3 0 .6-.2.7-.5 3.4-5.3 7-11 10.4-16.3.8 2.7 1.1 3.9 2.6 5.2 1.4 1.3 2.7 1.6 4.7 1.6 1.8 0 3.5-.7 5.6-1.6.8-.3 1.4-.7 2-1.1 0-1 .1-2 .3-2.9 0-.1-.1-.7-.6-.4-1 .7-2.2 1.4-3.8 2-1.9.7-2.8 1-4.6 1-2.2 0-4.2-1-5.6-3.2-.8-1.2-1.1-3-1.2-4.3 0-.1-.1-.2-.2-.2-.1.1-.2.1-.3.2" fill="url(#j)"/><linearGradient gradientTransform="matrix(0 -80.1548 -80.1548 0 47255.039 -65231.855)" y2="586.932" x2="-814.001" y1="586.932" x1="-815.001" gradientUnits="userSpaceOnUse" id="k"><stop offset="0" stop-color="#08142e"/><stop offset=".809" stop-color="#17326e"/><stop offset="1" stop-color="#0d69a9"/></linearGradient><path d="M233.3 72.8c-3.6 4.4-7.5 8.5-11.3 11.4-5.9 4.6-11.7 5.7-14.6 2.8-1.1-1.1-1.7-2.6-1.7-4 0-.7-.4-.7-.7-.4-3.5 3.4-9.5 7.2-15 4.5-2.7-1.4-4.2-3.9-4.8-6.7.3 2 .8 4.9 1.7 6.7.6 1.2 2 2.6 2.9 3 4.9 2.4 11.8-.3 16.3-4.6 0-.1.1-.1.1-.1.2.8.5 1.7.5 1.8.3 1 .8 1.9 1.2 2.4 3.1 3.5 9.5 1.9 16.3-3.3 3.8-2.9 6.6-5.8 10-9.8.1-.2.1-.4.1-.8-.2-.9-.5-2.4-.7-3.2-.2 0-.2.2-.3.3m-48.2 7.4c0 .1 0 0 0 0z" fill="url(#k)"/><linearGradient gradientTransform="matrix(0 -80.2057 -80.2057 0 47258.246 -65272.996)" y2="586.938" x2="-813.997" y1="586.938" x1="-814.997" gradientUnits="userSpaceOnUse" id="l"><stop offset="0" stop-color="#08142e"/><stop offset=".809" stop-color="#17326e"/><stop offset="1" stop-color="#0d69a9"/></linearGradient><path d="M186.8 60.7c-.3 2.2-1.5 4.1-3.5 5.1-1.7.8-3.7.7-5.1-.6-.4-.4-.7-.9-1-1.4.4 1.6.7 2.8 1.1 3.5 1.3 2 3.6 2.5 6.1 1.1 1.8-1 3.4-3.1 3.2-6.4-.1-1.7-.6-3.4-1.4-4.8.6 1.1.8 2.3.6 3.5" fill="url(#l)"/><linearGradient gradientTransform="matrix(0 -80.1351 -80.1351 0 47259.828 -65215.953)" y2="586.929" x2="-814.002" y1="586.929" x1="-815.002" gradientUnits="userSpaceOnUse" id="m"><stop offset="0" stop-color="#08142e"/><stop offset=".809" stop-color="#17326e"/><stop offset="1" stop-color="#0d69a9"/></linearGradient><path d="M238.1 40.1c-1.1 2-23.1 35.4-24.5 38.9-.4 1.1-.5 1.9 0 2.5.5.6 1.1.8 1.9.8.1-.4.2-.9.4-1.4 1.4-3.5 22-34.7 23.1-36.7.1-.2.1-.4 0-.5-.1-.3-.8-3.6-.8-3.9 0 .1 0 .2-.1.3" fill="url(#m)"/><linearGradient gradientTransform="matrix(0 -78.2857 -78.2857 0 46078.316 -63720.621)" y2="586.692" x2="-814.144" y1="586.692" x1="-815.144" gradientUnits="userSpaceOnUse" id="n"><stop offset="0" stop-color="#08142e"/><stop offset=".809" stop-color="#17326e"/><stop offset="1" stop-color="#0d69a9"/></linearGradient><path d="M146.9 55.7l.2.2c1.3 2 2 4.7 2.1 7.6.1.6.3.6.6.3s.5-.6.8-.8c-.4-1.5-1-2.9-1.6-4.2-.2-.6-1.2-2.3-2.1-3.1z" fill="url(#n)"/><linearGradient gradientTransform="matrix(0 -79.5963 -79.5963 0 46848.242 -64780.055)" y2="586.861" x2="-814.043" y1="586.861" x1="-815.043" gradientUnits="userSpaceOnUse" id="o"><stop offset="0" stop-color="#08142e"/><stop offset=".809" stop-color="#17326e"/><stop offset="1" stop-color="#0d69a9"/></linearGradient><path d="M158.1 62.3c-4.7 3.6-8.7 9.2-10.7 11.7-1.2 1.5-2.3 3.6-5.4 7-4.9 5.3-11.4 8.4-17.6 6.2-3.4-1.1-5.9-3.9-6.8-7.3-.2-.7-.6-.8-.9-.4-1 1.3-3.1 3.1-4.8 4.3-.2.1-.7.4-1.1.2-.4-.2-1.6-2-1.9-2.5 0-.1-.1-.1-.1-.2.4 2.2.5 2.5 1.1 3.5.7 1.1 1.4 1.9 1.5 2 .4.2.8 0 1-.1 1.3-.7 3.9-2.7 5.1-4.1.3-.3.7-.1.8.2.5 1.5 1.2 2.6 1.9 3.9.8 1.4 2.5 2.8 4.7 3.4 2.8.8 5.9.9 9.9-.6 3.2-1.2 6.6-3.7 9.2-6.6 3.1-3.4 4.2-5.5 5.4-7 2-2.5 5.2-6.9 9.6-10.7 1.5-1.3 3.2-2.2 4.3-1.8.6-1.6.3-2.5-.3-3-.2-.1-.5-.2-.8-.2-1.2.2-2.7 1.1-4.1 2.1" fill="url(#o)"/><linearGradient gradientTransform="matrix(0 -80.1316 -80.1316 0 47107.398 -65213.121)" y2="586.929" x2="-814.002" y1="586.929" x1="-815.002" gradientUnits="userSpaceOnUse" id="p"><stop offset="0" stop-color="#08142e"/><stop offset=".809" stop-color="#17326e"/><stop offset="1" stop-color="#0d69a9"/></linearGradient><path d="M79.3 57.8c-2.7 1.4-5.9 3.7-7.5 6.9-1.3 2.6-1.5 5.7.4 8.7.2.2.3.5.5.7-.6-2.5.1-5.1 1-7.1 1.6-3.2 3.8-4.7 6-6.1.9-.6 1.4-1.2.8-2.7-.2-.4-.3-1.2-.4-1.9.1.6-.2 1.2-.8 1.5" fill="url(#p)"/><linearGradient gradientTransform="matrix(0 -80.1145 -80.1145 0 47133.027 -65199.25)" y2="586.927" x2="-814.004" y1="586.927" x1="-815.004" gradientUnits="userSpaceOnUse" id="q"><stop offset="0" stop-color="#08142e"/><stop offset=".809" stop-color="#17326e"/><stop offset="1" stop-color="#0d69a9"/></linearGradient><path d="M99.4 25.9c-7.7 2.9-11.1 9-9.5 13.1.3.8.8 1.4 1.5 1.8-.5-3.8 2.3-9.9 9.7-12.4 9.7-3.2 20.5-1.2 29.2.7 1.2-.8 2.3-1.3 3.3-1.9.5-.3-.1-.6-.2-.6-6.9-1.3-14.1-2.9-21.1-2.9-4.4 0-8.7.6-12.9 2.2" fill="url(#q)"/><linearGradient gradientTransform="matrix(0 -80.1344 -80.1344 0 47134.477 -65215.367)" y2="586.929" x2="-814.002" y1="586.929" x1="-815.002" gradientUnits="userSpaceOnUse" id="r"><stop offset="0" stop-color="#08142e"/><stop offset=".809" stop-color="#17326e"/><stop offset="1" stop-color="#0d69a9"/></linearGradient><path d="M131.7 48.8c-3.5.2-8.9.7-12.6 1.2-.9.1-1 .3-1.2.6-5.9 9.7-12.1 20.1-19 27.1-7.4 7.5-13.5 9.5-20 9.5-7.5.1-14.2-4.2-15.9-11.7.9 4.2 3.6 9.2 6.7 11.4 3.2 2.2 6.3 3 9.9 3C87 90 93.8 87 101 79.7c6.9-7 12.9-16.8 18.7-26.5.2-.3.4-.5 1.4-.6 3.7-.5 7-.7 10.3-1 1-.1 1.7-.2 2.1.2 1.2 1.2 2.5 2.3 3.5 2.8.6 0 1.1.1 1.5.5.4-.1.7-.3 1-.5.4-.4.4-.9.4-1.3-.1-.8-.4-2.4-.6-2.8.2.3.1.8-.3 1.2-.3.3-.7.6-1.2.6-.4 0-.7-.2-1.2-.4-1.1-.6-2.5-1.6-3.4-2.7-.2-.3-.4-.4-.8-.4-.4-.1-.5 0-.7 0" fill="url(#r)"/><linearGradient gradientTransform="matrix(0 -80.1746 -80.1746 0 47160.359 -65247.84)" y2="586.934" x2="-813.999" y1="586.934" x1="-814.999" gradientUnits="userSpaceOnUse" id="s"><stop offset="0" stop-color="#08142e"/><stop offset=".809" stop-color="#17326e"/><stop offset="1" stop-color="#0d69a9"/></linearGradient><path d="M99.9 54.6c-.8.6-2 .5-2.5-.3-.2-.3-.3-.6-.3-.8-.1 1.3.4 3.1.8 3.7.4.7 1.7 1 2.7.3 2.2-1.7 4.3-2.6 6.5-3.1.6-.8 1.2-1.7 1.9-2.7.1-.1.1-.2 0-.2 0-.1-.1-.1-.3-.1-3.1.1-6 1.1-8.8 3.2" fill="url(#s)"/><linearGradient gradientTransform="matrix(0 -78.4306 -78.4306 0 46209.645 -63838.473)" y2="586.711" x2="-814.133" y1="586.711" x1="-815.133" gradientUnits="userSpaceOnUse" id="t"><stop offset="0" stop-color="#08142e"/><stop offset=".809" stop-color="#17326e"/><stop offset="1" stop-color="#0d69a9"/></linearGradient><path d="M193.5 23.8c0 .1.1.1.1.2 0-.1 0-.2-.1-.2z" fill="url(#t)"/><linearGradient gradientTransform="matrix(0 -80.1255 -80.1255 0 47185.605 -65208.18)" y2="586.928" x2="-814.003" y1="586.928" x1="-815.003" gradientUnits="userSpaceOnUse" id="u"><stop offset="0" stop-color="#08142e"/><stop offset=".809" stop-color="#17326e"/><stop offset="1" stop-color="#0d69a9"/></linearGradient><path d="M193.9 25.2c-.1 2.1-1.8 4.2-5.9 6.4-4.7 2.6-9.5 3.3-14.6 3.4-12.3.1-23.8-4.7-35.6-7.3 0 .5.1 1.1-.3 1.5-6.6 4.9-12.5 9.8-16.5 16.7-.1.2-.1.3.2.3 1.1-.1 2.1-.1 3.1-.2 3.6-5.7 7.5-8.9 13.4-13.3.4-.3.9-.6.7-1.8 11.9 2.6 20.9 7 36.3 7.1 4.6 0 11-1.5 14.5-3.6 4-2.4 5.1-4.2 5.2-6 0-.6-.1-1.5-.2-1.9-.1-.6-.2-1.4-.4-2 .1.1.1.4.1.7" fill="url(#u)"/><linearGradient gradientTransform="matrix(0 -75.7006 -75.7006 0 44523.125 -61631.156)" y2="586.339" x2="-814.354" y1="586.339" x1="-815.354" gradientUnits="userSpaceOnUse" id="v"><stop offset="0" stop-color="#08142e"/><stop offset=".809" stop-color="#17326e"/><stop offset="1" stop-color="#0d69a9"/></linearGradient><path d="M136.6 39.7c-.1.1-.3.3-.5.4-1.2 1.2-1.5 2.8-1.4 4 .1.5.3.6.5.5.2 0 .5-.1.7-.2.1-.7.4-1.3 1-1.9.5-.4 1.1-.6 1.6-.5.5-.9.6-2 0-2.5-.2-.2-.5-.3-.9-.3-.2.1-.6.2-1 .5" fill="url(#v)"/><linearGradient gradientTransform="matrix(0 -80.1342 -80.1342 0 47172.555 -65215.188)" y2="586.929" x2="-814.002" y1="586.929" x1="-815.002" gradientUnits="userSpaceOnUse" id="w"><stop offset="0" stop-color="#08142e"/><stop offset=".809" stop-color="#17326e"/><stop offset="1" stop-color="#0d69a9"/></linearGradient><path d="M141.3 43.9c-1.1 2.2-3 3.3-4.8 3.9 0 0-.4.1-.3.4 0 .4 1.3 1.2 2.1 1.7.1 0 .3-.1.3-.1.9-.4 2.4-1.3 3.3-3.2.6-1.2.9-2.2.6-4.4-.2-1.5-.5-2.9-.9-3.5.9 1.6.6 3.6-.3 5.2" fill="url(#w)"/><linearGradient gradientTransform="matrix(0 -80.1372 -80.1372 0 47130.418 -65217.613)" y2="586.93" x2="-814.002" y1="586.93" x1="-815.002" gradientUnits="userSpaceOnUse" id="x"><stop offset="0" stop-color="#08142e"/><stop offset=".809" stop-color="#17326e"/><stop offset="1" stop-color="#0d69a9"/></linearGradient><path d="M108.5 33.8c.2.5.2 1.4-.2 2.4-3.3 7.7-9.5 13.7-17.1 14-4.6.1-8-2.2-9.6-5.6 1.2 2.6 3.6 4.9 5.7 6.2 1.6 1 3.7 1.6 6 1.5 7.9-.3 13.9-6.8 15.9-12.3.5-1.5.1-3.1-.1-4.1-.2-.5-.3-1.4-.6-2.1z" fill="url(#x)"/><path d="M299.1 51.9c.1.3.1.5.1.8 0-.3-.1-.5-.1-.8M1 56.9c0-6.6 2.9-13.1 9-19.3C31.5 15.9 87.7 1.3 149.7 1 231.9.7 298.8 25.2 299 55.6c0 6.6-3 13-9.1 19.2-21.5 21.7-77.6 36.4-139.6 36.6C68.1 111.8 1.2 87.3 1 56.9M150 0C66.7 0 0 25 0 56.2c0 31.1 67.3 56.2 150 56.2s150-25.2 150-56.2C300 25.2 232.7 0 150 0" fill="#4f4c4d"/><linearGradient gradientTransform="scale(-133.90732 133.90732) rotate(-75 -792.6 -233.288)" y2="592.109" x2="-813.029" y1="592.109" x1="-814.029" gradientUnits="userSpaceOnUse" id="y"><stop offset="0" stop-color="#b2b1b1"/><stop offset=".35" stop-color="#deddde"/><stop offset=".65" stop-color="#deddde"/><stop offset="1" stop-color="#b2b1b1"/></linearGradient><path d="M.5 56.2c0 1.5.2 2.9.5 4.4-.2-1.2-.4-2.5-.4-3.7 0-6.7 3-13.4 9.1-19.6C31.3 15.5 87.6.8 149.7.6c8.6 0 17.1.2 25.3.7-8.1-.5-16.5-.8-25-.8C67.1.5.5 25.3.5 56.2" fill="url(#y)"/><linearGradient gradientTransform="scale(-133.2864 133.2864) rotate(-75 -793.283 -233.129)" y2="592.086" x2="-813.053" y1="592.086" x1="-814.053" gradientUnits="userSpaceOnUse" id="z"><stop offset="0" stop-color="#b2b1b1"/><stop offset=".35" stop-color="#deddde"/><stop offset=".65" stop-color="#deddde"/><stop offset="1" stop-color="#b2b1b1"/></linearGradient><path d="M299.4 55.6c0 6.7-3.1 13.3-9.3 19.5-21.5 21.7-77.8 36.5-139.9 36.8-8.8 0-17.4-.2-25.8-.7 8.3.5 16.8.8 25.5.8 82.5 0 149.5-25.2 149.5-55.8 0-1.2-.1-2.3-.3-3.5.3 1 .3 2 .3 2.9" fill="url(#z)"/><linearGradient gradientTransform="matrix(0 114.9095 114.9095 0 -69257.969 92479.391)" y2="604.023" x2="-803.814" y1="604.023" x1="-804.814" gradientUnits="userSpaceOnUse" id="A"><stop offset="0" stop-color="#fff"/><stop offset=".552" stop-color="#fff"/><stop offset=".691" stop-color="#fafafa"/><stop offset=".8" stop-color="#d3d2d2"/><stop offset="1" stop-color="#bdbcbc"/></linearGradient><path d="M8.4 56.2c0 27.2 63.4 49.3 141.5 49.3 78.2 0 141.5-22.1 141.5-49.3C291.5 29 228.2 7 150 7S8.4 29 8.4 56.2m5 0c0-24.9 61.1-45 136.6-45 75.4 0 136.6 20.1 136.6 45s-61.1 45-136.6 45c-75.4 0-136.6-20.1-136.6-45" fill="url(#A)"/><linearGradient gradientTransform="matrix(0 56.9881 56.9881 0 -34655.383 45657.746)" y2="611.161" x2="-799.559" y1="611.161" x1="-800.559" gradientUnits="userSpaceOnUse" id="B"><stop offset="0" stop-color="#fff"/><stop offset=".552" stop-color="#fff"/><stop offset=".691" stop-color="#efeeee"/><stop offset=".8" stop-color="#e9e9e9"/><stop offset="1" stop-color="#d3d2d2"/></linearGradient><path d="M230.1 39.5c-.6 0-.8.1-1.1.6-.9 1.7-11.5 17.5-13.4 20.6-.3.5-.7.4-.8-.1-.2-1.8-1.8-3.9-4.3-4.9-1.9-.8-3.8-.9-5.7-.7-3.5.5-6.6 2.3-9.3 4.4-4.1 3.1-7.7 7.2-12.2 10.2-2.5 1.6-5.9 3.1-8.2.9-2.1-1.9-1.8-6.2 1.3-9.5.3-.3.7-.1.7.3-.3 1.5.1 3 1.2 4 1.4 1.2 3.4 1.4 5.1.6 2-1 3.2-2.9 3.5-5.1.5-3.4-2.1-6.3-5.3-6.6-2.6-.2-5.2.7-7.6 2.8-1.2 1-1.9 1.8-3 3.3-.3.4-.7.4-.6-.1.1-4.3-1.7-6.7-5.2-6.8-2.8-.1-5.7 1.4-8 3.3-2.5 2-4.7 4.7-7.1 7.2-.3.3-.6.3-.6-.3-.1-2.9-.8-5.6-2.1-7.6-.5-.7-1.5-1-2.3-.6-.4.2-1.7.8-2.7 1.6-.5.4-.7 1-.5 1.7 1.3 4.3 1 9.1-.7 13.2-1.6 3.8-4.7 7.1-8.3 8.3-2.4.8-4.9.4-6.4-1.7-2.1-2.9-1.3-8 1.9-12.3 2.8-3.7 6.8-6.1 10.8-7.6.5-.2.6-.5.4-.9-.2-.7-.6-1.6-.7-2-.4-1-1.4-1.1-2.7-1-2.9.3-5.5 1.3-8.2 2.7-6.8 3.6-10.2 10.7-11.7 14.5-.7 1.8-1.3 2.9-2.1 3.9-1.1 1.4-2.4 2.6-4.9 4.7-.2.2-.4.6-.2 1 .3.5 1.5 2.3 1.9 2.5.4.2.9-.1 1.1-.2 1.7-1.2 3.8-3 4.8-4.3.3-.4.7-.2.9.4.9 3.4 3.4 6.1 6.8 7.3 6.2 2.1 12.7-.9 17.6-6.2 3.1-3.4 4.2-5.5 5.4-7 2-2.5 6-8.1 10.7-11.7 1.7-1.3 3.8-2.3 4.8-1.7.8.5 1.1 1.8-.2 4.2-4.8 8.8-11.9 19.2-13.2 21.7-.2.4 0 .8.4.8h7.3c.4 0 .6-.2.7-.5 3.7-5.8 7.2-11.3 10.9-17 .2-.3.4-.1.4.1.1 1.3.4 3.1 1.2 4.3 1.4 2.2 3.4 3.1 5.6 3.2 1.8 0 2.7-.2 4.6-1 1.6-.6 2.8-1.3 3.8-2 .6-.4.7.3.6.4-.9 4.6.2 10.1 4.8 12.3 5.5 2.7 11.5-1.1 15-4.5.3-.3.7-.3.7.4.1 1.3.7 2.9 1.7 4 2.9 2.9 8.8 1.8 14.6-2.8 3.8-2.9 7.7-7 11.3-11.4.1-.2.2-.4 0-.7-.5-.6-1.3-1.2-1.9-1.7-.2-.2-.6-.1-.8 0-3.7 3.5-6.9 7.4-11.7 10.7-1.6 1.1-4.2 2-5.3.5-.4-.6-.4-1.4 0-2.5 1.4-3.5 23.4-36.9 24.5-38.9.2-.3 0-.6-.4-.6-2.3-.1-5.3-.1-7.6-.1m-34.8 41.1c-1.1-.6-1.6-2.2-1.6-3.4.1-3.6 1.7-7.3 4.6-10.9 3.6-4.4 7.6-6.7 10.2-5.5 2.7 1.3 1.8 4.4.6 6.9-.1.2-.1.4 0 .5 0 .3.4.5.7.6.1 0 .2.1.1.4-.9 2-1.8 3.2-3 4.9-1.1 1.6-2.3 2.9-3.8 4.1-1.7 1.4-3.9 2.9-6 2.9-.6 0-1.3-.2-1.8-.5" fill="url(#B)"/><linearGradient gradientTransform="rotate(90 -55679.961 7806.474) scale(79.0529)" y2="607.208" x2="-801.915" y1="607.208" x1="-802.915" gradientUnits="userSpaceOnUse" id="C"><stop offset="0" stop-color="#fff"/><stop offset=".552" stop-color="#fff"/><stop offset=".691" stop-color="#efeeee"/><stop offset=".8" stop-color="#e9e9e9"/><stop offset="1" stop-color="#d3d2d2"/></linearGradient><path d="M113.3 19.2c-2.1 0-4.2.1-6.3.3-13.5 1.1-26.3 8.7-26.4 20.3 0 5.9 4.2 10.6 10.6 10.4 7.6-.3 13.8-6.3 17.1-14 1.2-2.9-1.1-4.1-2.1-2.4-1.9 3-4.7 5.3-7.6 6.8-3.6 1.7-7.4 1.3-8.5-1.6-1.6-4.1 1.8-10.2 9.5-13.1 11.1-4.1 22.8-1.4 34 .7.2 0 .8.3.2.6-2 1.1-4 2-7.1 4.6-2.2 1.9-5.1 4.4-7.3 7.1-2.2 2.7-3.8 5.1-5.9 7.8-.3.4-.6.4-.6.4-5.1.9-10 1.4-14.6 4.6-.9.6-1.3 1.8-.8 2.7.5.8 1.7.9 2.5.3 2.8-2.1 5.7-3.1 9.1-3.2.1 0 .2 0 .3.1v.2c-5 6.9-6.2 8.5-10 12.8-1.9 2.2-3.8 4.1-5.9 6-8.5 7.9-17.7 7.8-21 2.8-2-3-1.7-6.1-.4-8.7 1.6-3.2 4.8-5.5 7.5-6.9 1-.5 1.3-1.8.3-2.9-.6-.8-2.2-.9-3.3-.7-3.5.6-7.6 3.3-10.1 6.5-2.7 3.6-4.1 7.9-3.7 12.7.8 8.8 8 13.8 16.2 13.8 6.5-.1 12.7-2 20-9.5 6.9-7 13.2-17.4 19-27.1.2-.3.3-.5 1.2-.6 3.7-.5 9.1-1 12.6-1.2.8 0 .9 0 1.2.4.9 1.1 2.3 2.1 3.4 2.7.5.3.8.4 1.2.4.5 0 .9-.3 1.2-.6.4-.4.5-.9.3-1.3s-2.6-1.7-2.7-2.2c-.1-.3.3-.4.3-.4 1.8-.6 3.6-1.7 4.8-3.9 1.1-2.1 1.3-5-.7-6.5-1.8-1.4-4.5-1.2-6.6.8-2.1 1.9-2.8 4.6-2.5 7 0 .4 0 .6-.5.6-3.2.3-6.3.3-9.8.5-.2 0-.3-.1-.2-.3 4-6.9 9.9-11.8 16.5-16.7.4-.3.3-.9.3-1.5 11.9 2.6 23.3 7.4 35.6 7.3 5.1 0 10-.8 14.6-3.4 4.1-2.2 5.8-4.3 5.9-6.4.1-1.5-.9-2.4-2.4-2.1-12.4 2.9-24.3 2.8-36.7 1.3-14.2-1.8-27.7-5.3-41.7-5.3m21.4 24.9c-.2-1.3.2-3.1 1.7-4.3.7-.6 1.7-.8 2.2-.3.7.6.3 2-.3 2.9-.7 1.1-2 2-3.1 2.2h-.1c-.1.1-.3 0-.4-.5" fill="url(#C)"/></svg>