<svg xmlns="http://www.w3.org/2000/svg" height="30" width="40" viewBox="-51 -97.5 442 585"><path d="M159.836 387.139c-5.506-3.093-21.234-15.187-33.725-25.932-20.73-17.834-38.91-37.476-55.174-59.614-35.003-47.642-56.65-103.065-66.114-169.28C.308 100.719-1.444 56.589 1.426 46.74c1.818-6.234 5.952-12.04 11.181-15.697C18.26 27.09 36.31 19.97 52.502 15.308 86.814 5.429 124.71.697 169.68.674c57.33-.028 104.25 7.624 143.834 23.458 14.132 5.653 19.36 9.706 23.441 18.171l2.681 5.562-.063 24.331c-.176 67.617-15.426 133.348-43.24 186.369-7.088 13.514-23.847 39.652-32.138 50.128-15.343 19.384-33.08 37.983-50.68 53.142-11.885 10.237-29.472 23.581-34.347 26.062-5.992 3.048-13.047 2.772-19.332-.758zm11.894-1.738c-.92-.245-2.424-.245-3.343 0-.92.244-.168.445 1.671.445 1.84 0 2.592-.2 1.672-.445zm-37.976-24.028c0-.203-.752-.969-1.671-1.704-1.516-1.21-1.55-1.176-.361.368 1.248 1.621 2.032 2.137 2.032 1.336zm-5.732-4.816c0-.175-1.182-1.379-2.627-2.677l-2.627-2.36 2.316 2.677c2.165 2.502 2.938 3.123 2.938 2.36zm-13.375-12.822c-3.385-3.48-6.37-6.326-6.632-6.326-.263 0 2.292 2.846 5.677 6.326 3.385 3.48 6.37 6.326 6.632 6.326.263 0-2.292-2.847-5.677-6.326zm-14.33-14.6c-3.386-3.478-6.37-6.325-6.633-6.325-.263 0 2.292 2.847 5.677 6.326 3.385 3.48 6.37 6.326 6.633 6.326.262 0-2.292-2.847-5.678-6.326zm-8.599-9.562c0-.174-1.182-1.379-2.627-2.676l-2.627-2.36 2.316 2.677c2.165 2.501 2.938 3.122 2.938 2.359zm-5.732-6.832c0-.184-.967-1.17-2.15-2.19l-2.15-1.853 1.82 2.19c1.711 2.057 2.48 2.632 2.48 1.853zm-3.822-4.866c0-.185-.967-1.17-2.15-2.19l-2.149-1.854 1.82 2.19c1.71 2.058 2.48 2.633 2.48 1.854zm-3.821-4.898c0-.202-.752-.968-1.672-1.703-1.515-1.21-1.549-1.176-.36.367 1.247 1.622 2.032 2.137 2.032 1.336zm-2.866-3.893c0-.202-.752-.968-1.672-1.703-1.515-1.21-1.55-1.176-.36.367 1.247 1.622 2.032 2.137 2.032 1.336zm-2.866-3.893c0-.202-.753-.968-1.672-1.703-1.515-1.21-1.55-1.176-.36.367 1.247 1.622 2.032 2.137 2.032 1.336zm-13.375-20.07c-.563-1.071-1.238-1.947-1.5-1.947-.263 0-.018.876.544 1.946.563 1.07 1.238 1.947 1.5 1.947.263 0 .018-.876-.544-1.947zm-2.866-4.867c-.563-1.07-1.238-1.947-1.5-1.947-.263 0-.018.876.544 1.947.563 1.07 1.238 1.946 1.5 1.946.263 0 .018-.875-.544-1.946zm-2.867-4.866c-.562-1.07-1.237-1.947-1.5-1.947-.263 0-.017.876.545 1.947.562 1.07 1.238 1.946 1.5 1.946.263 0 .018-.876-.545-1.946zm-8.802-16.992c-2.733-5.6-5.122-10.025-5.308-9.835-.423.43 9.18 20.014 9.814 20.014.255 0-1.773-4.58-4.506-10.18zm-8.278-17.73c-1.126-1.972-1.398-1.34-.476 1.107.328.87.797 1.376 1.043 1.126.246-.251-.009-1.255-.567-2.232zm91.778-168.38c-.69-.282-1.513-.247-1.83.076-.318.324.246.554 1.253.512 1.113-.047 1.34-.278.577-.588zM8.011 43.92c.326-.866.165-1.256-.376-.915-.52.327-.945 1.006-.945 1.51 0 1.4.685 1.092 1.32-.595zm325.415.645c0-.476-.89-1.899-1.98-3.163l-1.98-2.297 1.708 3.163c1.772 3.28 2.252 3.77 2.252 2.297zM107.183 30.168c-.69-.281-1.513-.246-1.83.077-.318.323.246.553 1.253.511 1.113-.047 1.34-.277.577-.588zm41.38-1.281c.95-1.071 1.514-1.947 1.251-1.947-.263 0-1.256.876-2.207 1.947-.95 1.07-1.514 1.946-1.251 1.946.262 0 1.256-.876 2.207-1.946zm-24.183-.665c-.69-.281-1.514-.247-1.831.076-.318.324.247.554 1.254.512 1.113-.047 1.339-.278.577-.588zM239.024 9.73c-.69-.281-1.514-.247-1.831.077-.317.323.247.553 1.254.51 1.113-.046 1.34-.277.577-.587zm-7.643-.973c-.69-.282-1.514-.247-1.831.076-.317.324.247.554 1.254.512 1.113-.047 1.34-.278.577-.588zm-7.583-.953c-.657-.27-1.732-.27-2.389 0-.656.27-.119.49 1.195.49 1.313 0 1.85-.22 1.194-.49zm-94.641-.994c-.69-.281-1.514-.247-1.831.077-.318.323.246.553 1.253.511 1.113-.047 1.34-.277.578-.588zm83.636-.01c-.93-.246-2.22-.23-2.866.037-.647.266.114.468 1.69.448 1.576-.02 2.106-.238 1.176-.485zm-65.442-1.004c-1.717-.216-4.296-.212-5.732.01-1.435.222-.03.4 3.122.394 3.153-.005 4.327-.187 2.61-.404zm50.635 0c-1.717-.216-4.297-.212-5.732.01-1.436.222-.031.4 3.122.394 3.152-.005 4.327-.187 2.61-.404z" fill="#f7de9f"/><path d="M161.08 387.522c-17.106-9.15-57.067-45.364-77.851-70.552C30.334 252.87 3.943 175.42.36 73.771c-.888-25.186.755-31.714 10.144-40.313C22.5 22.47 69.738 8.808 111.78 4.164c78.078-8.624 153.033-.528 206.569 22.312 14.963 6.383 20.77 14.882 21.556 31.552.517 10.935-1.18 43.628-3.174 61.194-12.286 108.201-56.724 190.103-137.949 254.247-17.024 13.445-21.077 15.828-27.595 16.225-4.39.267-6.324-.148-10.108-2.172zm22.057-7.268c30.898-21.356 62.737-52.967 85.781-85.167 30.495-42.61 50.601-93.122 60.637-152.33 5.885-34.72 8.38-84.773 4.827-96.839-2.092-7.105-8.535-12.194-22.553-17.813-40.84-16.37-96.723-24.808-153.713-23.208-51.83 1.455-93.687 8.934-129.59 23.155-10.264 4.065-12.87 5.549-17.334 9.866-5.144 4.975-5.278 5.243-6.45 12.91-1.384 9.043-.1 43.934 2.452 66.625 12.39 110.192 57.67 192.367 141.435 256.68 13.134 10.083 16.483 11.938 21.56 11.938 3.961 0 5.59-.732 12.948-5.817zm-22.65.797c-4.451-2.757-17.004-12.451-26.733-20.645C81.756 316.613 45.92 263.31 25.333 199.142c-7.919-24.683-13.879-53.702-17.189-83.694-1.602-14.517-3.49-56.142-2.756-60.77 1.165-7.348 1.204-7.422 3.34-6.258 3.033 1.655 4.388-.305 2.375-3.435-1.24-1.927-1.369-2.94-.57-4.46 5.23-9.956 53.097-25.185 95.993-30.54 20.726-2.588 37-3.479 63.633-3.481 51.448-.005 90.257 5.465 127.441 17.961 16.806 5.648 26.938 10.165 29.65 13.219 1.69 1.902 1.694 2.11.095 4.87-2.092 3.607-1.391 4.824 2.776 4.824 3.464 0 3.397-.109 4.671 7.642.785 4.778-1.145 47.17-2.842 62.433-7.825 70.343-29.764 130.273-65.802 179.747-21.232 29.148-53.85 61.329-82.612 81.506l-6.844 4.8-1.536-2.234c-1.305-1.898-2.123-2.154-5.433-1.702-2.143.293-4.373 1.196-4.954 2.006-.93 1.296-1.445 1.233-4.283-.525zm-20.59-121.086c1.68-1.712 2.01-4.31.545-4.31a.958.958 0 00-.955.955c0 .525-1.075 1.23-2.389 1.565-2.391.612-2.945 1.455-1.751 2.67 1.073 1.094 2.972.727 4.55-.88zm-25.25-12.64c0-.236-.43-.43-.955-.43-.526 0-.956.465-.956 1.032 0 .566.43.76.956.429.525-.331.955-.795.955-1.031zm66.762-8.253c-1.604-2.656-3.069-4.829-3.255-4.829-.186 0 .818 2.342 2.232 5.204 1.413 2.862 2.878 5.035 3.255 4.829.377-.207-.628-2.548-2.232-5.204zm15.877-16.506c.339-.56-.332-.87-1.58-.73-1.714.19-2.305-.372-2.81-2.678-.595-2.724-.646-2.754-.751-.438-.171 3.755 3.52 6.517 5.14 3.846zm-21.586-14.96c4.3-.827 5.823-2.243 5.823-5.413 0-2.847-2.78-7.643-2.836-4.893-.017.826-1.929 3.4-4.25 5.72-2.32 2.32-4.44 5.079-4.71 6.131-.44 1.714-.324 1.766 1.114.498.883-.78 3.07-1.698 4.859-2.042zm30.639-1.563c-6.329-.832-8.524-1.932-11.816-5.916-4.097-4.96-2.968-10.66 2.6-13.128l3.03-1.342-3.403-.038c-10.018-.112-10.18 13.985-.22 19.34 2.538 1.365 5.338 1.922 9.355 1.863l5.732-.085-5.278-.694zm26.698-9.27c-.041-1.07-.292-1.399-.557-.73-.265.67-1.306 1.217-2.313 1.217-1.007 0-1.831.328-1.831.73 0 .401 1.075.73 2.388.73 1.777 0 2.37-.499 2.313-1.947zm-101.71-5.64c1.598-2.492 3.91-4.818 5.14-5.17 2.613-.745 9.063 1.145 12.803 3.752 3.757 2.618 8.628 3.246 10.202 1.314.697-.856 2.396-1.57 3.777-1.586 2.413-.03 2.439-.086.656-1.46-1.15-.887-4.052-1.435-7.643-1.443-7.027-.018-10.094-1.459-12.045-5.659l-1.48-3.185-1.812 2.039c-2.567 2.89-5.603 2.181-6.226-1.454l-.502-2.92-2.953 4.38c-4.184 6.205-6.088 10.248-6.088 12.929 0 5.143 2.246 4.584 6.17-1.537zm57.6-11.335c.978-.233-.114-6.678-1.65-9.746-1.44-2.875-2.633-3.922-5.016-4.402-9.397-1.892-11.72-4.785-10.854-13.523.66-6.653.594-6.808-4.519-10.692-2.006-1.524-4.117-3.821-4.691-5.104-1.366-3.055-2.743-2.946-9.313.733-7.705 4.316-8.416 5.811-4.912 10.343 1.556 2.012 3.09 5.463 3.452 7.76.363 2.31 1.178 4.136 1.846 4.136 1.764 0 3.413 4.38 3.413 9.065 0 3.463.66 4.874 4.198 8.996l4.198 4.889 11.805-1.199c6.492-.66 11.912-1.224 12.043-1.256zm20.728-7.402c-1.295-3.505-3.657-11.498-5.249-17.762-1.682-6.62-4.717-15.16-7.247-20.393-4.13-8.541-5.328-10.06-6.463-8.189-.63 1.039 4.38 13.62 7.984 20.052 1.518 2.71 3.895 9.525 5.281 15.145 1.452 5.884 3.564 11.768 4.98 13.87 1.352 2.007 2.595 3.649 2.763 3.649.168 0-.754-2.868-2.05-6.372zm-22.639-50.392c-4.952-4.13-2.436-7.168 3.613-4.36 1.93.896 2.409 1.699 2.075 3.48-.28 1.496-.107 1.982.492 1.372 1.714-1.746.294-4.544-3.188-6.279-6.26-3.118-9.472.553-4.567 5.22 1.634 1.556 3.248 2.813 3.587 2.794.339-.02-.567-1.022-2.012-2.227zm39.936-5.98c.761-1.856 1.382-4.374 1.38-5.596-.005-2.976-3.194-8.147-5.916-9.59l-2.2-1.168 2.03 2.322c4.448 5.087 5.275 9.506 2.722 14.536-.904 1.78-1.067 2.871-.43 2.871.566 0 1.652-1.519 2.414-3.375zm-70.091-22.93c-4.233-2.629-3.935-6.27.778-9.503 2.679-1.837 4.34-2.23 8.36-1.978 3.42.215 5.017-.053 5.016-.844 0-.638 2.04-1.82 4.537-2.626l4.538-1.466-5.732.51c-8.778.782-15.007 2.896-19.065 6.47-3.113 2.74-3.587 3.65-3.047 5.844.352 1.429 1.817 3.248 3.255 4.043 3.92 2.167 4.998 1.81 1.36-.45zM31.394 69.034c-.317-19.115-.307-19.228 1.82-20.183 3.178-1.429 2.588-2.505-.729-1.327l-2.866 1.018v19.857c0 13.749.322 19.856 1.047 19.856.735 0 .952-5.735.728-19.222zm157.614 18.368c.989-.639.875-.93-.506-1.298-.98-.26-2.323.116-2.985.838-.98 1.07-.886 1.31.506 1.298.94-.008 2.283-.385 2.985-.838zm118.404-38.957c1.466.563 2.19.597 1.653.077-.526-.509-1.923-1.223-3.105-1.586l-2.15-.662.218 20.26.218 20.261.28-19.676.279-19.677 2.607 1.003zM48.25 77.31c.625-.625.13-.708-1.433-.241-3.735 1.114-8.598 3.25-8.598 3.777 0 .713 8.926-2.434 10.03-3.536zm9.165-18.638c4.066-17.927 4.244-18.421 7.057-19.67l2.885-1.281-2.51-.038c-1.38-.021-2.94.51-3.467 1.178-.95 1.21-9.842 38.59-9.726 40.89.128 2.546 1.742-3.357 5.761-21.079zM289.596 75.92c-1.126-1.973-1.398-1.341-.476 1.106.327.87.797 1.376 1.043 1.126.246-.25-.01-1.255-.567-2.232zm-13.022-37.063c1.286.25 2.111.08 1.833-.378-.277-.457-1.554-.832-2.837-.832h-2.332l.218 19.708.217 19.709.28-19.332.282-19.33zM70.169 71.277c-.36-1.953-.869-3.332-1.131-3.064-.263.267-.184 2.084.176 4.037.36 1.954.869 3.333 1.132 3.065.262-.268.183-2.085-.177-4.038zM82.463 54.05c.178-18.731.191-18.84 2.329-19.148 1.182-.171 2.15-.77 2.15-1.33 0-.582-.923-.768-2.15-.433-1.183.323-2.472.593-2.866.6-.394.008-.717 9.065-.717 20.128 0 11.062.242 19.868.537 19.567.295-.301.618-9.024.717-19.384zm181.003-18.63c2.402-.372 2.363-.415-.498-.55l-3.105-.145.218 19.708.217 19.709.28-19.16.28-19.158zM92.766 62.5c-1.344-3.966-2.594-7.057-2.777-6.87-.184.186.656 3.858 1.867 8.159 1.21 4.3 2.46 7.392 2.776 6.87.317-.522-.523-4.194-1.867-8.16zm154.424-4.172c-.197-2.542-.358-.462-.358 4.623 0 5.086.161 7.166.358 4.623.197-2.542.197-6.703 0-9.246zm-143.052 1.055c0-5.71-.157-10.2-.35-9.976-.82.95-1.31 20.357-.515 20.357.476 0 .865-4.671.865-10.381zm13.375-10.542V29.98l4.284-.654c2.357-.36 5.796-.475 7.643-.256 1.846.22 2.994.03 2.551-.422-.443-.451-4.205-.692-8.359-.534l-7.552.287-.258 20.265c-.174 13.597.062 20.063.716 19.65.609-.383.975-7.697.975-19.475zm115.381-18.104l2.607-.097-2.388-.723c-1.314-.398-2.711-.547-3.105-.332-.394.215-.619 9.234-.5 20.042l.218 19.65.28-19.221.281-19.222 2.607-.097zm61.153 13.098c2.538.532 2.532.514-.268-.783l-2.866-1.327-.478 11.83c-.263 6.506-.263 12.487 0 13.29.263.802.598-4.169.746-11.048l.268-12.507zM147.73 62.922c-2.951-3.573-3.92-7.938-3.823-17.216.083-7.958 2.32-15.092 5.426-17.308 1.124-.802 3.775-1.471 5.89-1.488 3.176-.024 3.544-.21 2.108-1.06-2.394-1.418-6.34-.246-9.507 2.823-6.734 6.525-7.414 27.811-1.11 34.74 3.147 3.46 3.957 3.069 1.016-.491zm33.727-35.838c4.145.192 7.038.026 6.428-.37-.609-.394-4.225-.724-8.034-.732l-6.926-.015.217 20.195.218 20.195.28-19.81.28-19.811 7.537.348zm6.276 32.947c-.896-2.746-1.843-4.774-2.106-4.506-.262.268.255 2.733 1.15 5.479.896 2.746 1.843 4.773 2.106 4.506.263-.268-.255-2.733-1.15-5.48zm-56.77 1.391c2.261-2.085 2.456-8.017.35-10.695-1.435-1.825-1.451-1.816-.477.237 2.502 5.277.097 11-4.634 11.028-1.363.008-3.124.481-3.912 1.05-1.07.775-.388.915 2.701.555 2.274-.265 4.961-1.244 5.971-2.175zm71.912-.661c-2.146-4.176-2.883-17.804-1.279-23.641 1.64-5.966 5.783-9.498 10.591-9.03 1.963.19 3.364.01 3.115-.402-.25-.411-2.181-.748-4.293-.748-4.72 0-8.734 3.639-10.283 9.323-1.724 6.324-1.282 18.775.834 23.524 1.014 2.275 2.09 4.137 2.392 4.137.302 0-.183-1.424-1.077-3.163zM66.71 62.104c1.04-.67 1-1.663-.22-5.58l-1.484-4.766.54 4.437c.483 3.963.302 4.555-1.69 5.53-2.026.993-2.056 1.098-.32 1.145 1.05.028 2.48-.317 3.174-.766zm150.129-1.036c.544-1.035.983-2.459.975-3.163-.008-.704-.568-.186-1.245 1.152-.994 1.966-1.905 2.413-4.738 2.325-1.928-.06-3.277.269-2.997.73 1.024 1.688 6.977.912 8.005-1.044zm-57.051-2.984c1.197-2.44 1.67-5.75 1.67-11.679 0-10.401-1.855-14.938-6.288-15.378-1.752-.175-3.427.295-4.13 1.159-1.037 1.271-.809 1.308 1.836.293 2.724-1.046 3.193-.94 4.795 1.072 3.462 4.353 3.742 20.032.449 25.152-1.25 1.944-2.21 2.406-4.336 2.088-1.502-.224-2.498-.025-2.214.444.284.469 1.874.718 3.532.554 2.354-.233 3.381-1.045 4.686-3.705zM103.81 31.798c.444-.427 1.666-.987 2.717-1.244 1.286-.315.935-.505-1.07-.581l-2.981-.113-2.996 10.462c-1.647 5.755-2.968 11.12-2.936 11.923.033.803 1.5-3.295 3.26-9.106 1.76-5.811 3.563-10.915 4.006-11.341zm114.317 16.296l4.955-.356-5.493-.18c-5.427-.177-5.492-.147-5.363 2.497.108 2.22.2 2.312.538.535.346-1.817 1.156-2.195 5.363-2.496zm-81.944.322c-.346-.57-1.087-1.038-1.646-1.038-.633 0-.56.559.193 1.484 1.31 1.608 2.481 1.25 1.453-.446zm111.261-7.956v-7.89l2.628.621c1.949.461 2.257.367 1.194-.366-.788-.543-2.186-.995-3.105-1.003-1.455-.013-1.672 1-1.672 7.78v7.794l-5.016-.382c-3.904-.298-4.274-.223-1.672.34 7.87 1.7 7.643 1.904 7.643-6.893zm-117.457 3.177c2.72-2.244 2.929-7.33.397-9.687-1.63-1.519-1.678-1.52-.571-.017 1.557 2.115 1.02 7.677-.834 8.643-.789.41-2.938 1.176-4.777 1.702l-3.344.955 3.477.1c2.079.059 4.351-.623 5.652-1.696zm58.224-1.125c2.286-2.328 2.496-7.05.41-9.176-2.171-2.212-2.668-1.878-.941.633 3.322 4.832 1.232 8.459-5.522 9.584l-3.978.662 4.06.122c2.9.087 4.607-.434 5.971-1.825zm28.283-6.55c-.317-.323-.543.252-.501 1.278.045 1.134.272 1.365.577.588.276-.702.242-1.542-.076-1.865z" fill="#f9ce5c"/><path d="M161.93 387.73c-11.49-5.582-41.566-30.913-61.624-51.9-54.729-57.267-85.267-125.005-96.474-213.998C2.342 110.006.02 74.424.01 63.296c-.014-18.039 5.63-29.043 17.95-34.999 13.196-6.378 39.664-14.68 59.904-18.789 35.36-7.178 84.857-10.36 122.288-7.858 41.937 2.801 73.503 8.696 103.914 19.404 21.728 7.651 28.24 12.068 33.073 22.431 2.477 5.312 2.495 5.518 2.319 26.765-.726 87.299-23.39 164.305-66.39 225.56-20.207 28.786-48.848 58.176-79.7 81.784-16.487 12.615-22.408 14.524-31.439 10.137zm20.782-6.836c22.519-15.314 57.967-48.694 75.637-71.223 18.951-24.163 39.106-59.037 49.216-85.16 15.545-40.161 24.261-81.266 27.76-130.903 1.168-16.577 1.22-39.572.1-44.483-.563-2.466-.486-3.72.241-3.967 1.4-.476-1.826-5.566-3.528-5.566-.685 0-2.287-1.138-3.56-2.53-8.989-9.815-55.23-23.6-97.376-29.03-30.626-3.944-82.148-4.437-112.733-1.078-47.033 5.165-97.195 19.422-107.387 30.522-1.525 1.661-3.089 2.822-3.474 2.58-4.94-3.11-4.88 43.157.107 83.236 10.95 88.019 42.352 156.13 98.295 213.205 19.727 20.126 43.717 40.352 56.618 47.734 6.927 3.964 10.132 3.431 20.084-3.337zM164.673 376c-2.173-1.289-8.374-5.754-13.778-9.924-5.404-4.169-10.392-7.58-11.083-7.58-.691 0-2.66-1.273-4.374-2.828l-3.117-2.828 3.583 2.62c4.818 3.52 4.555 2.536-.406-1.526-2.194-1.796-3.673-2.745-3.288-2.11 1.592 2.623-1.19.879-4.71-2.955-2.078-2.261-2.702-3.25-1.389-2.198 1.314 1.053-4.718-5.527-13.404-14.623-15.312-16.035-29.954-33.678-39.57-47.682-5.48-7.98-6.926-9.688-5.356-6.326l1.137 2.433-1.958-2.433c-1.077-1.338-1.756-3.003-1.508-3.7.247-.697.043-1.011-.454-.698-.956.601-4.116-4.741-3.297-5.575.263-.268-1.639-4.455-4.225-9.305-6.859-12.858-12.144-24.235-18.285-39.36-2.988-7.36-5.69-13.12-6.005-12.8-.314.32-.348-.446-.075-1.703.324-1.494.2-1.867-.356-1.076-1.209 1.716-4.434-7.749-3.63-10.652.5-1.805.411-1.955-.457-.778-.837 1.137-.944.706-.482-1.946.47-2.692.362-3.1-.51-1.947-.935 1.238-1.017 1.19-.537-.317.311-.978-.483-6.015-1.765-11.193-6.215-25.1-12.695-69.766-13.015-89.708-.05-3.069-.289-3.813-.798-2.485-.674 1.754-.774 1.718-1.353-.487-.344-1.31-.631-4.68-.638-7.49-.02-7.746-1.892-6.749-3.199 1.703-.207 1.338-.428-4.137-.491-12.166-.064-8.03.2-15.037.586-15.572.386-.536 1.986-.973 3.555-.973 3.438 0 4.135-2.103 2.086-6.288-1.338-2.733-1.28-3.016 1.124-5.501 2.443-2.525 11.444-7.228 16.388-8.563 2.308-.623 2.3-.593-.239.882-1.445.84-2.627 1.95-2.627 2.469 0 1.205-.026 1.208 4.777-.518 4.84-1.74 6.07-1.83 5.191-.382-.426.703-.03.877 1.138.503 20.562-6.592 38.168-10.993 56.725-14.182 8.789-1.51 14.918-2.964 13.853-3.286-1.05-.318.239-.359 2.866-.091 3.65.371 4.439.23 3.344-.597-1.09-.825-.178-.97 3.822-.606 2.89.263 14.497.101 25.794-.36 38.09-1.552 53.985-1.891 52.796-1.125-.651.419 5.196 1.296 12.993 1.95 17.322 1.452 43.716 5.292 58 8.438 5.837 1.286 11.65 2.103 12.915 1.817 1.883-.426 2.041-.316.87.6-1.181.925-1.07 1.019.635.533 2.47-.705 7.192.344 6.522 1.448-.26.428.455.532 1.589.23 1.501-.4 1.858-.215 1.315.681-.557.917-.199 1.054 1.403.536 1.376-.445 1.932-.336 1.545.302-.347.572 1.536 1.717 4.419 2.687 9.538 3.211 20.318 8.334 23.021 10.94 5.674 5.471 5.904 6.611 5.692 28.178-.165 16.728-2.016 46.462-3.65 58.625-.514 3.825-.225 3.17 2.582-5.84 1.084-3.48 2.342-6.8 2.796-7.38.453-.58 1.238-3.427 1.743-6.327.872-5 .893-4.896.417 2.028-3.342 48.583-19.848 106.425-42.025 147.27-18.87 34.758-46.141 69.167-72.983 92.09l-6.196 5.292 4.346-4.805c2.39-2.643 5.047-6.397 5.903-8.342.855-1.945 2.962-5.23 4.681-7.3l3.125-3.762-3.295 2.972c-1.813 1.635-6.09 5.55-9.506 8.698-7.467 6.885-26.815 22.692-35.518 29.019-7.925 5.76-10.573 6.31-15.725 3.255zm-24.231-115.479c4.053-4.128 1.614-7.051-3.084-3.697-1.72 1.227-3.295 2.331-3.5 2.454-.776.461 2.096 3.19 3.357 3.19.724 0 2.176-.876 3.227-1.947zm-25.206-14.631c.079-1.588-.164-2.887-.54-2.887-1.296 0-3.167 4.74-2.533 6.423.916 2.433 2.89.16 3.073-3.536zm70.008-.586c1.752-.89 1.93-1.292.862-1.954-.74-.459-2.26-2.367-3.378-4.24-2.523-4.226-6.006-8.086-6.679-7.401-.277.283.895 2.736 2.606 5.452 2.566 4.074 3.023 5.601 2.61 8.735-.552 4.194.421 6.365 1.25 2.787.288-1.242 1.516-2.762 2.73-3.379zm50.72-1.571c-.008-.67-.384-1.811-.836-2.537-1.05-1.688-2.432.27-1.652 2.34.651 1.73 2.508 1.877 2.488.197zm-38.2-21.238c0-.46-.86-1.304-1.91-1.877-1.052-.573-1.911-1.683-1.911-2.467 0-.785-.43-1.426-.956-1.426-1.637 0-1.076 5.674.66 6.663 1.734.989 4.117.472 4.117-.893zm-75.214-13.556l.52-5.353-1.48 3.406c-.813 1.874-1.633 5.597-1.822 8.273-.337 4.79-.322 4.82.96 1.947.715-1.606 1.536-5.33 1.822-8.273zm50.18 6.18c.24-1.644.991-1.93 4.914-1.87 5.358.08 8.197-1.911 9.172-6.437.474-2.198.14-3.425-1.385-5.079-1.106-1.198-3.676-5.576-5.71-9.728-4.191-8.546-4.025-8.908 3.753-8.147 2.605.255 4.736.16 4.736-.21 0-1.278 4.875-2.934 8.636-2.934 2.733 0 4.096.535 4.961 1.947.657 1.07 1.843 1.933 2.636 1.917 1.143-.024 1.096-.235-.23-1.022-2.973-1.764-1.77-2.944 1.333-1.308 2.317 1.22 2.7 1.78 1.672 2.443-.976.63-.694.856 1.055.846 2.386-.013 2.385-.017-.731-2.905-2.382-2.207-4.036-2.89-6.99-2.89-2.128 0-4.7-.454-5.717-1.008-2.266-1.236-2.558-4.345-.326-3.472.837.327 2.664.842 4.06 1.145l2.539.55-2.389-2.14c-1.313-1.176-3.57-2.563-5.015-3.082-3.151-1.132-3.428-3.434-.544-4.52 1.963-.74 1.921-.82-.717-1.378-1.797-.38-3.398-1.684-4.47-3.64-1.473-2.687-2.017-2.972-4.577-2.4-3.264.731-7.605-1.509-7.605-3.923 0-.79.905-2.36 2.011-3.487l2.012-2.049-1.845-5.98c-1.766-5.725-2.07-6.09-7.133-8.575-7.844-3.849-8.115-7.067-1.01-11.985 4.3-2.976 7.67-3.095 12.763-.448 4.132 2.148 6.577 6.405 6.577 11.456 0 1.882 1.723 5.197 5.192 9.988 5.383 7.435 7.614 13.114 7.068 17.994-.26 2.314-.85 2.921-3.184 3.275-2.52.382-2.347.5 1.433.973 3.595.451 4.539 1.028 5.763 3.522 1.965 4.004 6.633 9.966 6.646 8.49.006-.65-.886-3.497-1.981-6.327-1.096-2.83-3.475-10.84-5.287-17.798-1.904-7.312-4.995-16.12-7.323-20.87-2.215-4.52-4.171-8.571-4.346-9.003-.176-.431.562-.784 1.638-.784 3.166 0 8.546 5.625 12.63 13.206 4.018 7.457 7.254 10.47 10.707 9.969 1.804-.262 2.07-.863 1.922-4.345-.199-4.673-3.32-11.487-6.061-13.231-2.783-1.77-2.309-2.68 1.4-2.68 3.298 0 5.189-1.306 3.463-2.393-.508-.32-4.12-1.414-8.027-2.432-3.907-1.018-11.452-3.882-16.768-6.364-5.867-2.74-10.369-4.285-11.456-3.934-.986.319-4.112 2.647-6.948 5.175-7.834 6.982-14.027 11.318-20.874 14.617-11.491 5.536-13.854 9.432-16.618 27.4-.86 5.595-1.91 10.412-2.331 10.706-1.794 1.251-10.834 14.14-12.125 17.29-1.699 4.141-1.764 6.204-.3 9.477 1.382 3.09 4.908 3.297 6.897.405 2.21-3.215 4.435-1.73 3.76 2.51-.36 2.253-.175 3.457.529 3.457 1.692 0 4.934-3.733 6.449-7.427 1.813-4.42 3.574-4.96 7.975-2.44 4.59 2.627 9.96 2.688 13.13.148 1.326-1.063 2.761-1.713 3.189-1.444 1.04.655 2.342-1.514 2.342-3.904 0-2.626 2.97-3.034 4.257-.586.77 1.467.734 2.484-.139 3.908-1.69 2.756-.15 3.702 3.016 1.85l2.711-1.584.405 3.534c.364 3.171-.064 4-4.161 8.065-5.045 5.006-6.413 8.507-4.763 12.194 1.238 2.77 3.31 2.606 3.734-.294zm-37.065-20.356c0-2.892 1.56-6.263 2.9-6.263 1.323 0 1.14 6.202-.225 7.592-1.792 1.825-2.675 1.387-2.675-1.33zm12.886-12.74c-.87-.886-1.969-2.649-2.442-3.918-1.258-3.37-3.495-3.819-6.19-1.24-2.822 2.7-3.916 1.965-2.554-1.716.551-1.489 1.516-6.828 2.144-11.865 1.794-14.381 5.867-16.752 9.13-5.314.82 2.873 2.106 5.85 2.857 6.616.751.765 1.366 3.147 1.366 5.294 0 3.155.732 4.765 3.821 8.401 2.102 2.474 3.822 4.69 3.822 4.926 0 .235-2.334.427-5.187.427-3.552 0-5.684-.507-6.767-1.61zm38.226-61.146c-2.301-1.931-2.6-2.584-1.52-3.311 2.646-1.78 8.524 2.119 6.655 4.414-1.438 1.765-1.814 1.685-5.135-1.103zm28.344 85.368c.933-.95-.261-1.2-5.749-1.2-10.448 0-15.43-3.477-15.43-10.77 0-8.026 10.036-10.241 12.59-2.78.535 1.565 1.376 2.845 1.868 2.845.525 0 .486-.78-.093-1.883-1.616-3.075-1.161-3.95 2.116-4.07 2.322-.085 1.824-.331-1.977-.975-2.795-.474-5.883-1.299-6.863-1.833-3.9-2.126-10.427-.713-13.103 2.837-3.355 4.45.555 13.654 7.373 17.36 3.64 1.979 5.356 2.286 11.195 2.003 3.793-.184 7.426-.874 8.073-1.534zm19.345-6.198c-.37-.608-.717-1.995-.773-3.082-.057-1.088-.7-2.18-1.43-2.427-.805-.274-1.065-.018-.66.649.409.674-.055 1.1-1.198 1.1-1.025 0-2.112.656-2.415 1.46-.41 1.09.152 1.46 2.23 1.46 1.53 0 3.046.437 3.37.973.325.535.806.973 1.069.973.262 0 .175-.498-.193-1.106zm-3.845-24.763c.714-1.896-.349-9.168-1.34-9.168-1.52 0-2.61 8.684-1.264 10.057 1.046 1.065 1.99.743 2.604-.889zm-98.756-5.426c2.09-3.295 3.795-6.47 3.789-7.056-.007-.587-1.074.826-2.371 3.139-1.298 2.312-3.257 5.487-4.353 7.056-1.096 1.568-1.74 2.851-1.43 2.851.31 0 2.274-2.696 4.365-5.99zm101.69-21.473c-.677-4.083-2.13-5.605-3.4-3.562-1.41 2.267-.954 7.573.808 9.406 1.605 1.67 1.703 1.66 2.437-.217.42-1.076.49-3.608.155-5.627zm-96.357 1.449c-.318-.324-.544.251-.502 1.277.046 1.134.272 1.365.577.588.276-.702.242-1.542-.075-1.865zm7.543-13.89c.951-1.07 1.514-1.946 1.252-1.946-.263 0-1.256.876-2.207 1.947-.951 1.07-1.514 1.946-1.252 1.946.263 0 1.256-.876 2.207-1.946zm84.107-22.717c1.263-6.855-4.858-14.326-12.948-15.806-3.31-.606-3.306-.597.964 1.682 7.517 4.013 10.9 12.633 7.117 18.135-.818 1.19-1.18 2.674-.802 3.296 1.018 1.677 4.948-3.389 5.67-7.307zm-57.357 5.199c.952-1.07 1.515-1.946 1.252-1.946-.263 0-1.256.875-2.207 1.946-.951 1.07-1.514 1.947-1.251 1.947.262 0 1.255-.876 2.206-1.947zm6.21-5.353c.655-.803.975-1.46.712-1.46s-1.013.657-1.667 1.46c-.654.803-.974 1.46-.712 1.46.263 0 1.013-.657 1.667-1.46zm-16.719-18.568c-8.25-3.021-8.661-8.656-.854-11.694 3.781-1.47 6.181-1.426 10.32.191 1.008.395 1.521.06 1.521-.993 0-2.099 3.754-3.464 9.855-3.583 3.914-.077 4.452-.261 2.565-.877-9.793-3.195-27.863 1.88-31.98 8.98l-1.752 3.02 3.477 3.246c2.705 2.526 4.274 3.23 7.073 3.178l3.597-.069-3.822-1.4zM31.53 68.837c0-16.261.226-19.392 1.433-19.864 1.24-.485 1.433 1.729 1.433 16.441 0 18.887-.35 18.072 6.688 15.542 4.67-1.68 5.732-1.793 5.732-.617 0 .463-3.245 2.048-7.211 3.522-3.966 1.473-7.043 2.85-6.838 3.06.206.208 3.63-.814 7.61-2.272 6.404-2.346 7.283-2.966 7.63-5.375.43-2.99.036-3-6.801-.148-6.152 2.565-5.968 3.075-5.658-15.69.154-9.368.238-17.033.185-17.032-.053 0-1.45.482-3.105 1.07l-3.009 1.068v20.4c0 13.353.33 20.193.956 19.8.585-.369.955-8.086.955-19.905zm158.433 18.565c.954-.616.722-.97-.921-1.408-1.208-.322-2.43-.2-2.716.272-.287.472-2.022 1.042-3.856 1.268-2.681.33-2.398.437 1.441.55 2.628.078 5.35-.23 6.052-.682zm115.001-20.187l-.278-19.095 2.667.671c3.151.794 1.93-.832-1.393-1.855l-2.15-.662V66.29c0 11.01.322 20.018.717 20.019.394 0 .59-8.592.437-19.095zm-18.462-.258c-3.24-8.118-6.064-14.585-6.275-14.37-.21.214 1.83 6.028 4.537 12.92 2.705 6.89 5.315 13.575 5.8 14.854.484 1.278 1.094 2.107 1.355 1.84.262-.266-2.176-7.126-5.417-15.244zm-228.711 7.9c.905-6.146 1.258-6.786 4.141-7.485a98.968 98.968 0 004.154-1.102c1.274-.385 1.814.591 2.68 4.843l1.086 5.324 2.907-1.033c3.376-1.199 3.604 1.02-2.28-22.249L66.4 37.034l-2.939.776c-2.757.73-3.04 1.244-4.571 8.336-.898 4.157-3.051 13.736-4.785 21.287L50.954 81.16l3.097-.968c2.731-.854 3.173-1.484 3.74-5.337zm-3.003.217c-.31-.826-.352-1.72-.09-1.985.26-.266.703.41.983 1.502.595 2.32-.066 2.677-.893.483zm.702-4.743c-.042-1.026.184-1.6.501-1.277.318.323.352 1.162.076 1.865-.305.776-.532.546-.577-.588zm1.91-8.76c-.041-1.025.185-1.6.502-1.277.318.324.351 1.163.076 1.866-.305.776-.532.545-.578-.588zm3.838-2.27c.05-1.472.612-4.867 1.248-7.543l1.155-4.866 1.195 6.721c.976 5.492.967 6.87-.053 7.528-2.364 1.528-3.638.867-3.545-1.84zm-2.882-1.622c-.042-1.026.184-1.601.501-1.278.318.324.352 1.163.076 1.866-.305.776-.531.545-.577-.588zm1.487-5.921c1.081-6.516 2.31-9.36 1.681-3.893-.308 2.676-.957 5.523-1.443 6.326-.576.951-.66.103-.238-2.433zm2.273-10.462c-.01-1.145.691-1.678 2.135-1.627 1.437.051 1.674.261.717.633-.788.305-1.75 1.037-2.135 1.626-.433.66-.708.418-.717-.632zM275.15 57.733V38.889l2.627.428c2.054.334 2.315.202 1.194-.607-.788-.569-2.4-1.041-3.582-1.05l-2.15-.014V57.11c0 12.328.35 19.465.956 19.465.604 0 .955-6.93.955-18.843zM85.586 72.683c1.095 0 1.38-2.474 1.485-12.896.072-7.092.32-11.8.551-10.462.67 3.878 6.16 21.818 6.943 22.689.391.434.988-.88 1.326-2.92.338-2.04 2.097-8.309 3.91-13.93l3.295-10.219-.561 12.746-.561 12.746 2.956-.442 2.955-.442.276-19.847.276-19.848h-3.012c-2.908.002-3.084.245-5.117 7.058-1.159 3.88-2.85 10.036-3.759 13.677l-1.652 6.622-3.5-11.123c-1.925-6.118-3.5-11.616-3.5-12.218 0-1.218-1.324-1.358-4.538-.481-2.14.584-2.15.67-2.15 20.53 0 17.784.164 19.878 1.511 19.35.831-.324 2.121-.59 2.866-.59zm175.431-18.12l-.278-19.095 2.428.62c1.336.342 2.428.225 2.428-.26 0-.484-1.29-1.074-2.866-1.31l-2.866-.428v19.783c0 10.88.323 19.784.717 19.784.394 0 .59-8.592.437-19.094zm-13.825 2.305c-.193-2.81-.35-.511-.35 5.11 0 5.62.157 7.92.35 5.109.193-2.81.193-7.41 0-10.22zM129.04 66.765c5.209-1.335 7.823-4.798 8.33-11.036.377-4.63.14-5.586-1.897-7.662-2.274-2.316-2.287-2.422-.59-4.558 2.673-3.362 2.339-10.205-.646-13.246-2.213-2.254-2.95-2.408-10.27-2.146l-7.887.283-.258 20.054-.258 20.054 5.035-.435c2.77-.24 6.567-.828 8.44-1.308zm-7.705-11.114v-6.326h3.673c4.407 0 6.836 2.307 6.836 6.495 0 3.836-2.64 6.157-7.002 6.157h-3.507zm.38-12.558c-.275-.732-.366-3.243-.202-5.58.268-3.8.57-4.279 2.88-4.55 4.142-.487 6.495 1.355 6.495 5.085 0 3.74-1.13 4.92-5.53 5.77-2.21.427-3.29.212-3.642-.725zm109.487 6.605c0-18.613.048-19.08 1.91-18.583 1.052.28 1.912.163 1.912-.26 0-.688-3.164-1.92-5.016-1.955-.394-.008-.717 8.965-.717 19.938 0 12.653.35 19.952.956 19.952.604 0 .955-7.013.955-19.092zm62.843-5.732c2.577.5 2.575.492-.266-.868l-2.866-1.373-.27 11.242c-.244 10.115-.412 11.056-1.678 9.396-1.287-1.688-1.323-1.597-.418 1.074 2.097 6.19 2.374 5.447 2.632-7.067l.267-12.908zm-76.218 22.29c1.565-.979 1.73-1.257.478-.808-1.051.377-3.416 1.013-5.255 1.415-3.286.717-3.294.731-.478.807 1.577.043 3.941-.594 5.255-1.415zm-58.459-1.384c3.834-2.381 5.816-6.89 6.55-14.895 1.52-16.585-5.928-28.059-15.28-23.538-4.802 2.321-7.544 8.433-8.09 18.033-.996 17.542 6.596 26.75 16.82 20.4zm-8.348-5.744c-3.93-4.004-3.985-20.643-.081-24.875 2.914-3.16 5.28-3.1 7.394.187 1.324 2.059 1.694 4.67 1.694 11.965 0 7.294-.37 9.907-1.694 11.965-1.99 3.095-4.739 3.38-7.313.758zm42.923 5.729c0-.436-1.237-4.353-2.749-8.705l-2.749-7.912 2.265-1.512c5.13-3.424 4.974-14.566-.263-18.763-2.036-1.63-3.875-1.998-10.008-1.998h-7.514V65.87h2.388c2.37 0 2.388-.065 2.388-8.76v-8.758l2.628.01c2.48.01 2.78.517 5.352 9.063 2.69 8.935 2.761 9.047 5.493 8.638 1.523-.227 2.769-.77 2.769-1.206zm-4.115-.69c-.223-.401-1.574-4.343-3-8.76l-2.596-8.029h-3.743c-2.362 0-3.74-.449-3.735-1.216.005-.807 1.788-1.27 5.293-1.374 2.907-.086 5.87-.651 6.586-1.256 3.54-2.993 2.356-10.567-1.965-12.573-2.836-1.316-8.64-1.453-9.387-.221-.293.483-.616 5.727-.719 11.653-.102 5.926-.425 10.532-.717 10.234-.293-.297-.747-5.98-1.01-12.628l-.477-12.087 6.713.001c7.812.002 10.294 1.322 11.918 6.335 1.494 4.609.424 8.759-2.95 11.45l-2.803 2.233 2.815 8.484c2.146 6.467 2.502 8.484 1.499 8.484-.724 0-1.499-.328-1.722-.73zm-11.736-22.022c-.278-.737-.372-3.474-.209-6.083.285-4.56.414-4.754 3.385-5.046 6.172-.607 10.492 7.588 5.774 10.954-2.64 1.884-8.265 1.994-8.95.175zM206.5 64.378c-3.733-3.199-5.224-7.98-5.303-17-.085-9.741 2.277-16.228 6.575-18.058 4.353-1.852 9.525-.12 11.782 3.946.595 1.071 1.094 1.366 1.11.655.016-.71-1.228-2.571-2.764-4.136-2.142-2.182-3.67-2.845-6.558-2.845-8.277 0-12.067 7.103-11.504 21.563.388 9.963 2.436 15.943 5.958 17.393 3.476 1.432 3.666 1.022.704-1.518zm9.71-1.866c3.343-3.406 2.724-11.24-.889-11.24-.723 0-1.316-.704-1.316-1.565 0-1.026.52-1.36 1.512-.973.83.325 2.528.59 3.771.59 2.045 0 2.294.487 2.611 5.11l.351 5.11.177-6.083.177-6.083h-5.255c-4.93 0-5.254.147-5.254 2.369 0 1.86.563 2.434 2.627 2.676 2.306.27 2.586.665 2.291 3.228-.496 4.307-1.854 6.329-4.235 6.305-3.545-.037-6.37-3.056-7.277-7.778-.572-2.973-.873-3.533-.945-1.753-.32 8.01 7.256 14.567 11.654 10.087zm5.254-1.047c-.294-.3-.829.24-1.187 1.2-.519 1.387-.409 1.499.535.545.652-.66.946-1.446.652-1.745zm25.98-20.47c0-7.12.04-7.242 2.444-7.242 1.387 0 2.19-.421 1.854-.973-.324-.536-1.64-.974-2.922-.974-2.278 0-2.332.18-2.332 7.786 0 5.611-.334 7.77-1.194 7.728-.657-.032-3.237-.4-5.732-.819-2.496-.418-4.538-.419-4.538-.001 0 .417 2.042 1.04 4.538 1.382 2.495.342 4.967.748 5.493.901 1.982.579 2.388-.747 2.388-7.788zm-41.584-1.7c.335-2.037 1.445-4.556 2.466-5.597 1.022-1.04 1.438-1.892.925-1.892-1.688 0-4.009 4.715-4.414 8.966-.458 4.807.129 3.96 1.023-1.477zm11.967-1.117c0-1.312-2.33-5.354-3.306-5.736-.756-.295-.632.655.368 2.835 1.274 2.776 2.938 4.42 2.938 2.901zm3.821-1.475c0-.518-.645-.69-1.433-.382-.788.308-1.433.732-1.433.942 0 .21.645.383 1.433.383s1.433-.424 1.433-.943zM25.345 33.941c-.294-.3-1.065 0-1.713.664-.936.961-.827 1.073.535.545.942-.365 1.472-.91 1.178-1.21z" fill="#d8a016"/><path d="M167.74 389.072c-3.598-.504-6.034-1.691-11.178-5.446-17.628-12.869-32.197-24.8-45.247-37.056-5.006-4.702-16.002-16-19.865-20.413-15.789-18.032-28.888-36.514-44.928-63.387-3.535-5.923-7.848-14.771-13.737-28.185C13.658 191.025 3.67 147.049.722 93.429.15 82.99-.04 74.943.007 63.119c.04-9.777.089-10.951.555-13.532.884-4.883 2.596-9.512 4.67-12.626 2.567-3.853 9.531-9.412 15.108-12.06 7.877-3.741 27.064-9.535 44.352-13.394 4.694-1.048 13.953-2.944 17.095-3.5.92-.163 2.857-.51 4.303-.771 1.447-.261 3.384-.577 4.304-.702.92-.125 2.427-.386 3.347-.58.92-.194 2.642-.479 3.826-.632a767.62 767.62 0 005.499-.743c1.841-.255 3.831-.522 4.423-.593 5.772-.693 7.642-.909 11.477-1.325C138.42.547 164.27-.45 182.923.194c8.19.282 26.767 1.355 28.238 1.63.408.077 2.237.224 4.064.327 1.828.104 4.829.373 6.67.598 1.84.225 4.8.574 6.575.775 8.328.946 15.557 1.887 18.65 2.427 1.117.196 4.076.684 6.574 1.085 26.314 4.226 48.104 10.384 64.316 18.176 7.012 3.37 9.814 5.265 13.222 8.938 3.974 4.284 6.34 8.805 7.583 14.491 1.053 4.817.58 34.834-.85 53.897-1.952 26.017-5.313 47.915-10.87 70.809-6.005 24.738-14.059 47.402-25.769 72.512-3.96 8.491-5.033 10.578-8.318 16.181-1.766 3.011-3.265 5.587-3.33 5.724-.066.136-.443.74-.837 1.342a57.583 57.583 0 00-1.004 1.576c-.158.266-.75 1.25-1.315 2.186-.566.937-1.072 1.813-1.124 1.947a1.054 1.054 0 01-.245.365c-.081.067-.62.888-1.197 1.825-.577.937-1.462 2.323-1.967 3.08-.505.758-.919 1.488-.919 1.622 0 .135-.08.282-.18.327-.244.11-1.493 2.085-1.493 2.361 0 .123-.162.286-.36.363-.196.077-.358.251-.358.388 0 .136-.592 1.117-1.315 2.18-.723 1.062-1.315 2.037-1.315 2.166 0 .13-.161.299-.358.376a.6.6 0 00-.359.512c0 .205-.09.373-.199.373-.109 0-.351.301-.538.67-.186.367-.42.778-.521.912-.805 1.075-1.78 2.451-3.524 4.978-1.708 2.474-3.524 5-5.954 8.283-21.522 29.074-44.03 50.908-79.384 77.008-5.16 3.81-7.578 5.168-10.59 5.947-2.108.545-5.097.772-6.882.521zm6.119-2.207c2.979-.77 5.453-2.137 10.176-5.622 45.159-33.326 70.39-60.427 99.15-106.494 7.73-12.383 11.478-18.94 14.553-25.462 8.37-17.755 14.395-32.539 19.349-47.47 12.037-36.291 18.536-74.664 20.171-119.11.384-10.435.312-30.651-.118-33.16-1.173-6.845-5.3-13.352-11.378-17.938-2.209-1.667-10.045-5.7-15.053-7.747-14.84-6.067-31.81-10.623-54.026-14.503-13.044-2.278-30.08-4.375-46.504-5.725-1.71-.14-3.7-.31-4.423-.376-2.235-.203-12.738-.825-18.769-1.11-11.508-.544-32.375-.262-46.981.634C101.786 5.127 59.85 12.785 31.099 22.67c-7.914 2.721-10.73 3.992-14.816 6.686-6.637 4.377-9.664 7.709-11.847 13.038C1.88 48.632 1.424 53.9 1.809 72.73c.49 23.887 1.89 42.51 4.665 62.048 5.513 38.81 15.173 71.561 31.686 107.43 6.423 13.951 8.27 17.32 18.487 33.701 2.526 4.05 9.398 14.434 12.24 18.496 19.249 27.512 37.883 47.386 65.644 70.013 7.21 5.876 24.358 18.895 27.256 20.693 1.05.651 3.817 1.73 5.117 1.994 1.85.377 4.987.268 6.955-.24zm-6.43-9.819c-1.459-.418-4.782-2.738-11.576-8.081-41.732-32.818-65.298-58.508-88.817-96.827-3.148-5.128-7.348-12.308-10.177-17.398-2.823-5.079-11.818-24.131-16.312-34.552-15.932-36.94-24.686-75.271-27.37-119.84-.943-15.668-1.085-37.13-.274-41.609.89-4.922 2.498-9.226 4.693-12.561 2.393-3.637 6.813-7.25 11.019-9.007 8.638-3.61 28.187-9.244 44.923-12.949 29.112-6.444 56.284-9.775 86.79-10.64 8.393-.238 22.975-.158 25.942.142.526.053 2.57.162 4.543.241 18.88.76 44.222 3.486 62.403 6.714 22.442 3.985 39.53 9.043 54.154 16.03 2.302 1.1 4.989 2.38 5.972 2.844 8.089 3.817 11.786 9.71 13.007 20.726.6 5.422-.834 32.25-2.735 51.14-5.388 53.545-16.21 92.653-36.583 132.215-8.224 15.972-21.372 37.8-31.31 51.986-17.047 24.33-33.557 41.329-66.794 68.776-.672.555-3.482 2.885-6.243 5.18-2.762 2.293-5.745 4.665-6.629 5.27-3.117 2.134-6.154 2.909-8.626 2.2zm-61.972-86.983c2.934-1.357 3.906-3.429 4.3-9.165.263-3.815 1-5.262 2.88-5.662l.949-.201-.12-2.3c-.178-3.435-.144-8.537.063-9.288.1-.363 1.29-2.06 2.646-3.771 3.214-4.056 5.13-6.865 5.67-8.31.24-.642.666-2.745.947-4.675.575-3.942.326-3.377 4.643-10.54 1.282-2.126 3.203-5.671 4.27-7.878 1.162-2.402 2.302-4.406 2.844-4.997a78.092 78.092 0 001.386-1.551c.264-.31.586-.564.714-.564.489 0 1.914 1.531 2.444 2.627.531 1.098.554 1.377.554 6.823 0 5.674 0 5.679.565 6.144.31.256.81.466 1.112.466.542 0 .541-.01-.128-.736-.977-1.064-1.203-2.527-1.028-6.655.138-3.239.106-3.665-.38-5.129-.291-.878-.496-1.952-.455-2.386.071-.748.13-.793 1.15-.867 1.215-.088 1.764-.495 2.414-1.792.457-.911.578-1.649.5-3.042-.038-.666-.218-.872-1.28-1.46-1.634-.904-2.085-1.589-2.38-3.617-.343-2.342-.064-9.586.432-11.247.437-1.462.636-1.487 2.347-.296 1.67 1.163 6.744 3.357 9.25 4 3.07.788 7.244.88 8.572.19 1.15-.598 5.432-3.929 7.226-5.622.82-.774 2.137-1.883 2.926-2.465a50.438 50.438 0 002.374-1.867c.517-.445 1.185-.808 1.486-.808.845 0 3.122.943 3.914 1.622 1.441 1.234.718 2.48-2.782 4.797-2.762 1.828-5.716 5.083-7.079 7.802-.627 1.252-3.532 10.006-3.532 10.645 0 1.027.785 3.16 1.57 4.27 2.878 4.064 4.265 6.344 4.56 7.497.179.695.488 1.662.688 2.149.776 1.888-.154 2.936-3.298 3.715-1.213.3-2.817.62-3.566.71l-1.36.165.384.597c.33.512.415.543.596.214.173-.315.703-.384 2.94-.384 2.2 0 2.973-.098 3.99-.506l1.26-.506.602.761c.671.851 4.545 4.906 4.545 4.758 0-.613-1.85-4.89-3.318-7.67-1.024-1.941-2.347-4.569-2.94-5.84-.605-1.302-1.93-3.472-3.032-4.965-1.076-1.46-2.034-2.938-2.13-3.285-.336-1.226-.158-3.302.426-4.98.923-2.649 1.66-2.471 1.666.402.005 2.086.272 2.717 2.569 6.076 2.636 3.855 2.823 4.193 4.137 7.501 1.114 2.803 2.482 5.379 4.101 7.722.799 1.156 2.347 5.356 2.347 6.367 0 .406-.293.928-.806 1.434l-.806.795-.513-.663c-.281-.364-.586-.587-.677-.494-.091.093-.21.874-.263 1.736-.097 1.545-.086 1.58.766 2.347.814.734.864.865.865 2.255 0 1.757.517 2.953 1.593 3.684.439.298 1.872.74 3.415 1.053l2.658.539.942-.76c1.648-1.327 3.575-3.679 3.841-4.686.308-1.165.114-2.172-.533-2.769a4.585 4.585 0 01-.811-1.084c-.484-.952-.066-1.192 2.07-1.192 1.74 0 1.877-.04 2.426-.704.636-.768 2.256-4.382 3.207-7.153.487-1.416.6-2.199.59-4.05-.012-1.876.101-2.634.615-4.137.85-2.49.857-4.347.023-5.978-.704-1.374-1.209-1.883-3.001-3.024-1.958-1.245-1.709-2.026.974-3.06 1.534-.59 2.313-1.246 2.313-1.947 0-.572-.012-.574-2.116-.436-2.105.14-2.118.137-2.57-.532-1.32-1.952-2.077-2.234-3.437-1.281-1.476 1.033-4.788 7.136-4.788 8.823 0 .98 1.083 1.973 3.052 2.798 1.017.425 2.097.934 2.399 1.129.987.638 1.48 1.776 1.482 3.415 0 .828.113 1.804.25 2.17.136.365.253 1.369.26 2.23.01 1.273-.127 1.85-.728 3.092-.963 1.993-3.97 5.935-4.757 6.24-.855.33-1.741-.375-2.17-1.727-.308-.97-.292-1.139.208-2.29 1.13-2.598 1.262-3.566.993-7.319-.136-1.903-.38-3.756-.543-4.118-.494-1.105-1.278-.767-2.938 1.267-1.56 1.911-2.573 2.718-3.417 2.72-.819 0-1.104-.825-.96-2.78.147-1.962.573-3.286 2.281-7.088 1.29-2.868 3.326-8.282 4.023-10.691.532-1.844.593-6.472.11-8.393-.26-1.027-.624-1.645-1.582-2.676-2.155-2.323-4.981-6.347-6.495-9.25-1.732-3.322-2.9-6.812-2.278-6.812.325 0 2.98 3.452 4.067 5.289 1.331 2.25 2.025 2.827 3.21 2.666.868-.118.894-.098 1.033.767.463 2.879 1.818 5.71 3.935 8.22.976 1.158 5.028 4.467 6.203 5.065 1.365.695 3.603 1.44 6.23 2.074 1.601.387 2.857.492 5.925.493 4.083 0 5.011-.18 5.98-1.166.26-.264 1.103-.71 1.875-.992.77-.281 1.66-.65 1.976-.819.836-.446 1.475-1.434 1.317-2.034-.125-.474-.352-.521-3.165-.66-3.623-.178-6.84-.941-9.315-2.21a41.02 41.02 0 00-3.325-1.494c-2.807-1.076-4.941-2.812-5.434-4.423-.247-.807.236-1.488 1.182-1.669.46-.088.896-.257.968-.375.072-.119.313-.218.535-.22 1.02-.01 1.083-.307.55-2.612-.636-2.76-.641-3.224-.037-3.224.98 0 1.68.61 3.035 2.638.77 1.153 2.006 2.729 2.749 3.501 1.204 1.252 1.455 1.404 2.317 1.404.532 0 1.032-.106 1.11-.235.079-.129-.076-.672-.344-1.207-.299-.594-.488-1.444-.488-2.19 0-1.015.124-1.36.742-2.078.688-.797.843-.86 2.117-.86 1.614 0 2.67.595 3.577 2.016.527.824.674.904 1.66.904.783 0 1.338-.179 1.998-.645.776-.547 1.003-.604 1.499-.374.32.149.844.686 1.163 1.193.319.507.907 1.236 1.308 1.62.676.65.82.688 2.013.536.714-.09 1.565-.055 1.915.08 1.083.42 1.21 1 .752 3.425-.384 2.033-.385 2.232-.007 3.238.222.59.727 1.442 1.123 1.894.81.924.823.967 1.188 4.029.348 2.916.057 4.98-1.15 8.175a1747.96 1747.96 0 00-1.812 4.819c-.477 1.275-1.173 2.691-1.547 3.147l-.68.83.977.755c1.262.977 2.22 2.625 3.575 6.157 1.936 5.042 2.112 5.668 2.142 7.597.025 1.543-.127 2.303-.98 4.917-1.352 4.139-1.39 5.733-.174 7.355.46.613.837 1.299.837 1.523 0 .224-.59 1.401-1.313 2.616-2.985 5.022-2.975 7.304.047 10.115 1.58 1.469 2.975 2.244 3.855 2.14.596-.07.644-.166.713-1.413.084-1.501.753-2.505 1.59-2.383.417.061.511.312.65 1.734.2 2.058.307 2.352.86 2.352.99 0 4.32-2.642 4.99-3.96l.361-.713-1.035.73c-.569.4-1.295 1.013-1.614 1.362-.695.76-1.412.807-2.239.145-.842-.674-.984-1.616-.519-3.438.544-2.127.372-3.776-.47-4.514-.55-.48-.908-.562-2.482-.565-1.012 0-1.995-.104-2.185-.226-.642-.414.093-1.399 1.638-2.192 2.241-1.152 2.36-1.966.434-2.967-1.278-.663-1.59-1.088-1.6-2.18-.01-1.256.852-2.434 2.134-2.917 1.535-.576 2.163-1.429 2.163-2.935 0-1.67-.568-2.76-2.012-3.865-2.354-1.8-2.292-1.697-2.292-3.876 0-1.576.085-2.042.441-2.404.329-.334.476-.958.575-2.43.086-1.278.312-2.355.635-3.034.791-1.664.71-2.092-.838-4.428-.989-1.493-1.291-3.008-1.291-6.466 0-1.445-.1-2.892-.22-3.215-.31-.83-.031-3.591.379-3.752.695-.271 1.768.484 2.532 1.785.84 1.43 1.016 1.55 1.203.82.2-.78 1.365-.605 4.12.616 6.242 2.766 13.239 3.33 17.011 1.371 2.153-1.117 6.028-4.536 7.02-6.194.928-1.548.869-1.576-2.995-1.443-3.912.135-6.26-.156-8.847-1.098-2.195-.798-4.62-2.452-5.987-4.08-.605-.72-2.21-2.247-3.568-3.394-1.359-1.148-2.531-2.25-2.607-2.449a.6.6 0 00-.519-.362c-.732 0-3.966-1.521-5.739-2.699-.98-.651-2.225-1.414-2.766-1.695-1.722-.894-8.27-2.247-12.34-2.55l-2.206-.164-.16-.887c-.294-1.621-.778-2.702-2.235-4.99-1.203-1.891-1.444-2.446-1.448-3.34-.006-1.285-.526-2.51-2.25-5.306-.86-1.394-1.467-2.741-1.816-4.03-.288-1.064-.938-2.892-1.444-4.062-1.153-2.668-1.555-4.132-1.894-6.898-.375-3.067-.795-4.787-1.88-7.697-.517-1.388-1.179-3.728-1.47-5.2-.755-3.821-1.038-4.526-2.987-7.435-.96-1.43-1.823-2.971-1.92-3.423-.096-.452-.466-1.16-.822-1.575-.356-.414-1.064-1.454-1.574-2.311a75.115 75.115 0 00-1.475-2.384c-.3-.453-.547-1.124-.547-1.49 0-1.037.572-1.343 2.37-1.272 3.786.15 6.714 3.038 10.541 10.4 3.042 5.85 5.54 8.868 8.652 10.453 1.22.621 2.008.862 2.82.862 1.428 0 1.946-.535 2.1-2.167.133-1.407-.14-2.702-1.439-6.836-.747-2.38-.988-3.583-1.105-5.53-.18-3.008-.315-3.193-3.027-4.147-2.332-.82-2.47-1.249-.559-1.741 1.892-.487 3.909.032 6.122 1.576 1.45 1.011 1.726 1.117 2.645 1.013.832-.095 1.287-.364 2.403-1.423 1.26-1.195 1.368-1.38 1.279-2.177-.11-.979.533-2.483 1.396-3.266.708-.642 1.11-1.648 1.937-4.838 1.1-4.252.813-7.798-.87-10.735-1.346-2.346-7.735-7.512-11.446-9.255-3.388-1.59-3.554-1.605-21.906-1.823-20.47-.243-29.578-.698-32.224-1.609-3.82-1.315-6.571-3.698-6.166-5.34.232-.94 1.514-2.229 2.66-2.674 2.13-.828 5.138-.238 10.984 2.15 5.36 2.191 8.608 2.747 14.81 2.535 5.507-.187 9.857-.857 10.976-1.69.409-.304.409-.333-.007-.713-.24-.217-1.995-.801-3.902-1.298-4.177-1.088-6.455-1.966-6.455-2.488 0-.327.413-.357 3.168-.237 3.203.14 6.773.751 9.544 1.635 1.715.547 5.588.673 6.858.222.835-.296.988-.919.377-1.54-1.532-1.56-9.938-4.617-16.399-5.964-4.072-.85-7.227-1.057-14.017-.921-8.357.166-11.81.787-15.806 2.84-3.262 1.676-7.078 5.205-8.28 7.658-1.406 2.873-.458 4.789 3.593 7.257 2.802 1.707 4.996 2.408 9.683 3.091 8.485 1.238 14.477 1.531 30.962 1.514 8.052-.01 14.47.086 15.302.226 2.478.414 5.392 1.473 6.909 2.512 1.782 1.22 3.971 3.832 5.114 6.102.752 1.492.86 1.93.873 3.529.013 1.572-.08 2-.673 3.089-.924 1.695-2.82 3.825-3.76 4.22-1.118.472-3.82-.01-7.016-1.238-2.22-.856-3.017-1.04-5.26-1.205-2.911-.216-3.24-.315-7.569-2.264-4.423-1.992-11.152-4.215-14.526-4.798-1.61-.278-3.174.037-5.413 1.091-2.262 1.065-3.563 2.112-8.06 6.493-4.237 4.129-6.161 5.667-8.53 6.82-4.302 2.095-16.592 9.12-17.735 10.138-1.678 1.494-4.504 4.98-5.694 7.022-2.18 3.74-2.854 6.682-3.113 13.579-.177 4.695-.21 4.937-.955 6.866-.831 2.155-3.045 6.035-6.034 10.577-2.809 4.27-4.832 7.669-6.181 10.387-2.659 5.354-3.117 7.405-3.347 14.996l-.17 5.596-.866 2.567c-.476 1.412-1.472 4.04-2.212 5.84-2.743 6.673-2.69 6.332-2.944 18.603l-.187 9.003-1.002 2.014c-.552 1.107-1.474 2.713-2.05 3.568-1.324 1.97-1.698 3.551-2.188 9.261a384.155 384.155 0 01-.488 5.392c-.1.892-.471 1.41-3.128 4.38-5.066 5.66-7.005 8.608-7.005 10.648 0 1.01-.075 1.144-1.02 1.805-1.853 1.298-4.463 4.334-5.338 6.21-1.033 2.216-1.277 4.278-.65 5.51.702 1.38 1.17 1.15 3.146-1.542l1.756-2.393.575.55c.316.302.575.686.575.854 0 .167-.435 1.216-.965 2.33-.534 1.12-.934 2.297-.897 2.634.092.816.923.94 5.926.882 3.538-.04 4.069-.102 5.14-.599zm-2.223-13.197c-.826-.33-2.059-3.148-1.856-4.247.173-.943.406-1.01 1.651-.48 1.29.548 1.923.45 3.129-.487 1.176-.914 1.55-1.019 2-.56.424.43.351 1.186-.217 2.272l-.86 1.646c-.671 1.284-2.755 2.29-3.847 1.856zm7.711-22.966c-.53-.54-.587-.795-.587-2.657 0-1.133-.052-2.205-.117-2.383-.064-.179-.012-.489.116-.69.195-.305.353-.235.966.426.597.645.916.791 1.722.791.679 0 1.158-.162 1.53-.517.73-.698 1.287-.447 1.264.57-.037 1.646-1.069 3.502-2.453 4.416-1.206.796-1.693.805-2.44.044zm76.088-2.184c-.633-.173-1.259-.425-1.391-.56-.413-.42-.808-3.388-.55-4.137.503-1.463 2.308-.787 2.758 1.034.261 1.056.3 1.09 1.19 1.09 1.057 0 1.414.45 1.414 1.78 0 .742-.084.854-.747.989-.988.2-1.312.177-2.674-.196zm-71.1-20.199c-1.002-.45-1.354-1.645-1.233-4.175.112-2.33 1.05-4.504 2.318-5.374l.797-.546.597.721c.361.437.826.721 1.18.721.877 0 2.69-1.048 4.036-2.331a116.73 116.73 0 012.552-2.346c1.691-1.5 2.114-2.507 2.1-5-.018-3.23-.241-3.903-1.757-5.287-1.528-1.397-2.12-2.624-2.124-4.406-.005-2.087 1-3.26 2.794-3.26.987 0 1.675.668 2.92 2.834 2.052 3.571 5.045 4.953 7.015 3.24.942-.82 1.253-.878 1.785-.338.306.312.375 1.025.375 3.878 0 1.922.1 3.76.22 4.083.15.4.648.765 1.565 1.143 1.632.674 2.154 1.493 1.976 3.1-.144 1.302-.878 2.169-2.122 2.51-1.337.366-2.324.01-6.417-2.32-1.236-.703-2.618-.79-3.474-.22-.322.215-1.133 1.143-1.803 2.063-.95 1.303-1.743 2.03-3.595 3.292-2.604 1.776-3.35 2.534-4.868 4.943-1.086 1.725-2.383 3.18-2.839 3.185-.154 0-.496.055-.759.119-.263.063-.82-.04-1.24-.229zm38.418-51.504c-.854-.403-2.092-.85-2.75-.992-1.53-.33-2.412-.794-2.87-1.506-.328-.51-.327-.72.009-2.055.432-1.719.21-3.066-.632-3.838-.425-.39-.84-.459-2.571-.425-1.187.023-2.51.204-3.111.426-.575.212-1.073.386-1.106.386-.113 0 .165-2.31.387-3.208.156-.633.468-1.05 1.065-1.426 1.428-.898 1.625-1.418 1.47-3.86-.187-2.934.179-4.382 1.111-4.399.114 0 .609.407 1.1.909.619.634 1.058 1.432 1.439 2.616.932 2.898 1.327 3.527 2.22 3.532 1.43.01 1.49.15 1.49 3.577 0 3.746.23 4.326 2.719 6.828 3.828 3.848 3.84 5.232.03 3.435zm38.877-19.551c-.088-.355-.087-1.612 0-2.795l.16-2.15-.68-.453c-.607-.404-1.213-.454-5.591-.46-4.29-.01-5.033-.066-5.868-.464l-.956-.455.717-.178c.395-.098 1.74-.19 2.989-.207 2.624-.035 3.65-.274 4.76-1.107 3.112-2.336 2.485-5.226-2.146-9.883-2.885-2.901-3.39-3.697-3.285-5.172l.073-1.02 1.195 1.23c.658.678 1.57 1.882 2.029 2.677 1.313 2.279 5.666 8.337 7.302 10.162 2.38 2.655 3.268 4.97 2.882 7.507-.204 1.343-1.61 3.058-2.677 3.267-.659.129-.763.072-.904-.5zm-5.201-38.518a16.232 16.232 0 01-1.155-1.486c-.303-.449-1.062-1.41-1.686-2.137-1.364-1.586-1.553-2.15-.93-2.783.638-.65 3.342-.66 4.528-.017 1.206.655 2.126 2.591 2.314 4.872l.147 1.788-.724-.162c-.537-.12-.76-.064-.866.216-.22.582-.96.449-1.628-.291zm-7.017-34.302c-.263-.065-.986-.338-1.606-.606-1.363-.59-1.693-1.295-.908-1.941.694-.573 1.235-.557 2.447.073.544.282 1.642.568 2.44.635 1.012.085 1.724.308 2.35.736.982.674 1.09.907.518 1.13-.437.17-4.528.15-5.24-.026zm-49.227 190.15c1.645-.86 3.16-2.641 4.511-5.303.669-1.317 1.593-2.692 2.288-3.403 1.406-1.439 1.696-1.986 2.354-4.44.62-2.312 1.673-4.483 3.592-7.402 2.172-3.305 3.142-4.243 5.998-5.803 4.504-2.46 4.772-2.79 5.057-6.215.11-1.337.36-2.742.554-3.124.447-.88 2.696-2.957 4.528-4.181l1.411-.944h-6.624c-5.14 0-6.992.085-8.263.38-.902.208-2.16.345-2.797.304l-1.159-.075-1.489 3.771c-.819 2.075-1.491 3.984-1.494 4.243-.009.808-.763 3.625-1.21 4.517-.618 1.236-4.676 5.537-5.75 6.094-.504.262-1.229.476-1.61.476-.84 0-1.787.712-2.177 1.634-.158.375-1.042 1.221-1.978 1.894-2.148 1.544-4.794 4.029-5.461 5.127-.795 1.308-1.18 3.169-1.183 5.718-.003 2.594.505 4.85 1.091 4.85.197 0 1.125-.547 2.06-1.216 2.737-1.956 3.294-1.54 1.628 1.216-.526.87-.956 1.708-.956 1.862 0 .474 1.694.795 3.825.725 1.639-.054 2.27-.191 3.254-.705zm2.34-13.27c-1.536-1.143-2.964-2.611-2.964-3.049 0-.244.566-.69 1.46-1.149l1.458-.749.969.652c1.318.888 2.405.996 3.964.392 1.74-.674 1.933-.558 1.67 1.008-.117.696-.343 1.53-.503 1.852-.378.764-1.92 1.447-3.676 1.628-1.286.133-1.475.087-2.377-.585zm25.13.438c.537-.139.279-.193-1.034-.214-1.53-.025-1.741-.083-1.674-.455.043-.234.636-.7 1.318-1.034.682-.335 1.327-.7 1.434-.812.107-.112.195-1.066.195-2.122 0-2.296.33-2.779 2.142-3.123 1.25-.238 1.803-.742 1.803-1.643 0-.417-.256-.666-1.056-1.026-1.317-.593-1.77-1.318-1.161-1.86.233-.206 1.313-1.156 2.4-2.11 1.75-1.536 2.014-1.878 2.3-2.975.623-2.393 1.115-5.427.955-5.886-.228-.652-1.07-1.56-1.448-1.56-.174 0-.532-.218-.795-.486-.319-.325-.478-.379-.478-.162 0 .178-.715 1.52-1.588 2.98-.874 1.462-2.021 3.568-2.549 4.681-.856 1.807-1.116 2.133-2.416 3.03-3.635 2.508-5.582 5.687-6.112 9.981-.248 2.01-.087 3.336.405 3.336.192 0 .915-.492 1.608-1.095.693-.602 1.447-1.095 1.676-1.095.372 0 .4.18.253 1.662l-.164 1.663.797.26c.93.302 2.175.328 3.189.065zm74.656-83.856c.451-.35 1.297-1.296 1.88-2.102l1.06-1.464-.604-.757c-2.391-3.003-3.88-5.245-5.024-7.564-.727-1.476-1.319-2.847-1.314-3.048.013-.591.743-1.353 2.178-2.275 3.245-2.085 3.599-2.96 3.74-9.264.066-2.967.003-5.13-.179-6.083-.388-2.04-1.504-4.248-2.982-5.904l-1.246-1.395-.936.288c-1.145.352-2.888 2.027-3.478 3.342-.624 1.392-.55 3.026.287 6.34.5 1.981.734 3.493.736 4.748.003 2.194-.087 2.765-1.112 7.04-1.036 4.323-1.344 6.688-1.338 10.288.005 3.196.322 4.753 1.24 6.117 1.585 2.354 5.145 3.204 7.092 1.693zM32.183 88.928c2.203-1.19 8.031-3.691 12.842-5.512l4.124-1.56V78.51c.001-1.886-.095-3.346-.22-3.346-.296 0-7.311 2.895-9.67 3.992-1.036.48-1.978.875-2.093.875-.117 0-.209-7.512-.209-17.155 0-9.435-.08-17.157-.18-17.159-.098 0-1.753.737-3.677 1.643l-3.497 1.646-.102 20.196c-.056 11.108-.063 20.279-.015 20.38.188.394 1.221.144 2.697-.654zm277.384-8.593c-.04-4.785-.148-13.99-.239-20.455l-.164-11.755-3.109-1.323c-1.71-.728-3.404-1.324-3.765-1.324h-.658v40.578l1.016.274c.56.15 2.254.81 3.766 1.467 1.512.656 2.857 1.203 2.989 1.215.156.014.213-2.98.164-8.677zM296.34 54.458l.033-11.338-2.69-.907c-1.48-.498-2.876-1.008-3.105-1.132-.228-.125-.74-.226-1.135-.226h-.72l-.03 10.28c-.015 5.655-.01 10.418.011 10.585.173 1.353-1.014-1.311-5.244-11.77-3.662-9.055-5.005-12.126-5.37-12.283-.9-.387-5.348-1.436-6.088-1.436h-.734v40.88h.612c.498 0 5.17 1.096 6.862 1.61.399.12.413-.518.268-12.36-.105-8.63-.075-12.413.097-12.245.136.134 2.774 6.482 5.863 14.106l5.615 13.863 2.714.866 2.715.867.146-9.011c.08-4.956.161-14.113.18-20.35zM52.417 80.887c.39-.198 1.772-.693 3.07-1.1 1.298-.407 2.375-.765 2.393-.795.019-.031.554-2.658 1.19-5.838l1.156-5.781 1.097-.33c3.773-1.132 6.287-1.681 6.453-1.409.096.159.642 2.395 1.213 4.97.572 2.575 1.109 4.765 1.194 4.866.085.101 1.709-.185 3.608-.637 2.841-.676 3.44-.893 3.381-1.227-.04-.222-.935-3.385-1.99-7.027-1.054-3.643-3.477-12.043-5.385-18.667-1.908-6.623-3.513-12.088-3.567-12.143-.054-.055-1.203.188-2.552.54-1.35.353-2.718.672-3.042.708-.578.065-.648.333-3.508 13.327-1.605 7.294-3.774 17.13-4.82 21.858-1.885 8.52-1.897 8.599-1.394 8.806.697.286.702.285 1.503-.121zm8.927-18.812c0-.385 2.391-12.318 2.546-12.704.174-.434.472.665 1.866 6.873l1.024 4.562-.984.257c-1.032.27-3.318.9-4.033 1.113-.23.068-.419.023-.419-.1zm204.746-7.03l.143-20.242-1.368-.28a306.9 306.9 0 01-3.879-.836c-1.38-.306-2.698-.553-2.928-.547-.394.01-.422.895-.479 14.63-.058 14.167.024 25.972.18 26.136.181.188 7.904 1.65 8.039 1.522.082-.078.213-9.251.292-20.384zM84.2 72.608A191.79 191.79 0 0187.328 72c.04 0 .1-4.627.134-10.28.046-7.669.128-10.127.322-9.673.143.334 1.748 4.687 3.566 9.672 1.818 4.985 3.422 9.062 3.565 9.06.774-.01.702.203 5.685-17.029.677-2.342 1.32-4.362 1.43-4.49.109-.127.198 4.39.198 10.038 0 5.648.08 10.267.18 10.266.286 0 5.605-.706 6.408-.847l.73-.128-.08-19.647c-.045-10.805-.138-20.013-.208-20.461-.119-.764-.175-.807-.888-.683-2.049.358-5.481.692-6.023.586-.335-.065-.652-.047-.705.041-.054.088-1.562 4.919-3.353 10.735-1.79 5.816-3.368 10.938-3.507 11.382-.139.444-.3.76-.356.701-.058-.058-1.609-4.528-3.447-9.932a9528.397 9528.397 0 00-3.438-10.095c-.066-.186-.965-.095-2.925.298-1.557.312-3.163.57-3.569.573l-.738.01-.158 7.705c-.087 4.237-.158 13.427-.158 20.421 0 13.597-.063 12.778.993 12.969.086.014 1.533-.246 3.214-.58zm168.12-20.15l.06-20.354-.539-.118c-2.33-.507-5.87-1.109-6.517-1.109h-.789l.132 7.908c.129 7.658.118 7.908-.322 7.908-.25 0-2.23-.272-4.4-.604-2.17-.333-4.025-.607-4.124-.609-.099 0-.18-3.614-.18-8.028v-8.026l-.537-.113c-1.066-.224-6.052-.872-6.695-.87h-.657v40.789l3.765.499c2.071.274 3.831.462 3.911.417.08-.045.091-4.262.025-9.371l-.12-9.29.573.136c.315.074 2.32.381 4.458.682l3.885.547v18.903l.777.013c.427.01 2.122.265 3.766.575 1.643.309 3.096.54 3.227.514.157-.031.26-7.076.3-20.401zm-36.925 16.015c3.632-.963 5.995-3.274 7.124-6.967.396-1.294.45-2.296.45-8.264V46.45h-10.996v1.18c0 .649-.07 2.018-.154 3.042l-.155 1.861h4.66l-.083 3.243c-.078 3.031-.125 3.306-.72 4.22-1.766 2.715-5.421 2.236-7.554-.992-1.545-2.338-1.612-2.882-1.612-13.162 0-9.05.011-9.268.524-10.243.636-1.21 2.001-2.473 2.887-2.67.36-.08.78-.185.934-.233.565-.174 2.025.417 2.848 1.152 1.037.927 1.734 2.27 1.93 3.72l.147 1.096h3.554c4.06 0 3.77.223 3.21-2.463-1.155-5.544-5.621-9.217-11.208-9.217-5.516 0-10.039 3.497-11.683 9.033-.24.807-.315 3.397-.312 10.676.004 10.619.137 11.89 1.553 14.773.906 1.844 2.87 4.063 4.61 5.208 1.292.85 3.537 1.754 4.95 1.994 1.39.237 3.82.143 5.098-.195zm-90.453-1.331c8.191-.699 8.723-.852 10.8-3.111 3.821-4.158 4.353-12.772 1-16.218-.75-.772-2.325-1.592-3.073-1.601-.31 0-.111-.19.564-.53 3.61-1.819 4.679-9.409 2.103-14.928-1-2.145-2.373-3.604-4.182-4.447l-1.346-.627-3.95.297c-4.043.305-11.797 1.028-11.89 1.11-.03.024-.128 9.226-.22 20.448l-.166 20.404 2.251-.149a625.33 625.33 0 008.109-.648zm-3.168-5.747c-.099-.1-.18-2.722-.18-5.825v-5.64l3.527-.138 3.527-.139.787.77c.433.422 1.079 1.372 1.435 2.11.558 1.156.647 1.642.647 3.53 0 1.959-.07 2.313-.667 3.345-1.014 1.756-1.622 1.984-5.55 2.086-1.84.048-3.427 0-3.526-.097zm1.19-17.801l-1.379-.088.065-5.28.064-5.28 3.26-.068 3.26-.068 1.104 1.25c2.597 2.94 2.305 7.694-.561 9.165-1.09.56-1.951.614-5.812.368zm34.563 22.694c4.988-1.076 8.42-4.664 9.004-9.417.121-.98.195-6.163.164-11.516-.062-10.735-.103-11.085-1.66-14.113-.911-1.77-3.194-4.147-4.845-5.043-1.584-.86-3.679-1.46-5.55-1.588-4.18-.286-8.765 2.864-11.068 7.604-1.638 3.371-1.723 4.222-1.53 15.326.182 10.433.279 11.313 1.488 13.575 2.211 4.135 8.328 6.395 13.997 5.172zm-5.117-6.304c-1.318-.48-2.299-1.29-2.97-2.455l-.608-1.056-.05-10.182-.05-10.182.66-1.368c1.668-3.458 5.64-4.085 8.506-1.342 1.089 1.041 1.72 2.378 1.959 4.145.11.817.233 5.317.273 10.001.072 8.455.069 8.525-.475 9.653-1.216 2.525-4.495 3.786-7.245 2.786zm43.064 6.112c0-.17-1.56-4.275-3.467-9.124-1.906-4.85-3.467-8.914-3.467-9.034 0-.12.399-.293.886-.386 3.544-.677 5.56-4.205 5.565-9.74.004-5.245-2.162-10.02-5.429-11.968-1.225-.73-3.17-.914-12.438-1.172l-5.798-.16v40.863l.777.12c.427.066 2.1.138 3.717.16l2.94.04-.035-8.71-.035-8.71 2.006-.07 2.006-.07 2.14 7.005a1335.16 1335.16 0 002.756 8.95l.619 1.947 2.612.07c1.437.037 2.774.107 2.972.153.858.204 1.673.123 1.673-.166zM178.66 42.639c-.088-.089-.16-2.65-.16-5.689v-5.527l2.945-.173c3.261-.19 4.212.028 5.48 1.264 2.078 2.026 1.962 7.615-.2 9.546l-.83.741h-3.537c-1.946 0-3.61-.073-3.698-.162z" fill="#9f6b08"/><path d="M163.577 374.642c-7.988-4.956-27.909-21.166-41.287-33.596-21.957-20.402-43.976-47.738-58.983-73.225C31.306 213.47 14.68 150.095 12.723 74.994c-.571-21.929-.531-22.622 1.55-27 2.757-5.804 5.236-7.51 18.363-12.643 36.245-14.172 74.51-20.728 126.913-21.746 59.166-1.15 108.083 5.99 147.454 21.52 13.644 5.382 16.072 7.04 18.844 12.874 2.088 4.393 2.124 5.043 1.54 27.487-3.205 123.332-45.512 214.802-131.837 285.043-10.47 8.52-21.393 16.287-24.114 17.147-1.348.426-3.82-.528-7.86-3.034zm-58.014-84.123c1.497-.695 2.595-2.48 3.404-5.536.657-2.48 1.862-5.301 2.679-6.268.9-1.066 1.643-4.303 1.888-8.217.357-5.713.826-7.002 4.066-11.178 2.09-2.694 4.328-7.104 5.214-10.275.854-3.056 2.223-6.87 3.042-8.475 6.13-12.017 10.088-18.979 10.788-18.979 2.11 0 3.798 4.615 3.798 10.388 0 4.55.382 6.279 1.533 6.935 1.369.78 1.383 1.175.134 3.698-.77 1.553-1.703 4.111-2.074 5.684-.925 3.916-3.987 8.08-7.178 9.762-1.461.77-4.652 3.374-7.09 5.788-3.514 3.48-4.43 5.052-4.418 7.588.02 4.29 1.395 6.532 3.003 4.895 1.924-1.96 2.797-1.393 2.115 1.375-.614 2.492-.524 2.56 2.559 1.932 3.956-.806 7.537-3.124 8.192-5.302.273-.906.875-2.304 1.338-3.107.464-.803 2.233-4.454 3.933-8.114 2.115-4.556 4.435-7.778 7.356-10.216 2.347-1.959 4.892-5.086 5.656-6.948 2.257-5.504 8.825-10.203 8.825-6.314 0 2.283-3.695 9.167-6.398 11.92-3.397 3.461-6.014 8.1-6.018 10.67-.004 2.254 1.34 2.94 2.385 1.216 1.04-1.715 2.227-1.04 1.71.973-.42 1.636-.03 1.947 2.445 1.947 4.909 0 9.527-2.817 10.237-6.243.342-1.652 1.452-4.395 2.465-6.096 1.207-2.024 1.635-3.94 1.24-5.545-.646-2.619 1.107-9.367 2.432-9.367.988 0 4.446 7.255 5.335 11.192.363 1.606 1.503 3.868 2.534 5.026 1.746 1.962 2.509 2.07 11.1 1.58 8.888-.506 9.313-.635 11.614-3.528 1.732-2.177 2.537-4.62 2.927-8.88.69-7.511 3.928-12.621 11.367-17.937l5.563-3.976 1.371 2.178c.754 1.199 2.385 4.7 3.625 7.783 2.072 5.15 2.157 5.993 1.043 10.42-.666 2.649-.926 5.733-.577 6.853.353 1.134-.116 4.162-1.06 6.837l-1.695 4.802 2.26 2.45c2.565 2.782 4.335 3.123 5.138.991.728-1.932 2.52-1.874 2.52.081 0 2.07 1.876 1.31 4.034-1.633 1.652-2.254 1.667-2.674.251-6.752-.83-2.391-1.317-5.103-1.082-6.026.235-.923 0-3.55-.52-5.84-1.191-5.229-1.127-11.355.186-17.796.922-4.526.791-5.506-1.363-10.243-1.31-2.88-2.203-5.42-1.983-5.644.219-.224 2.028.247 4.02 1.044 9.264 3.71 16.501 2.864 20.896-2.442l2.605-3.144-5.64-.49c-6.411-.558-6.705-.705-13.472-6.741-4.768-4.254-4.945-4.587-4.433-8.392.303-2.246-.17-7.18-1.088-11.39-1.496-6.845-1.504-7.842-.106-12.741.835-2.924 1.517-6.602 1.517-8.174 0-4.703-2.573-11.961-5.6-15.8-1.563-1.98-3.308-5.364-3.877-7.517-.57-2.154-2.09-5.5-3.38-7.437-2.212-3.32-2.267-3.715-.955-6.915.766-1.867 1.392-5.801 1.392-8.744 0-4.648-.407-5.823-3.105-8.953-5.854-6.793-8.594-7.411-36.543-8.252-32.263-.97-37.346-2.203-32.334-7.845 2.051-2.309 5.396-2.249 12.361.222 7.606 2.699 16.913 3.369 22.362 1.611 4.678-1.51 4.762-1.43-3.344-3.145-1.314-.277-2.388-.991-2.388-1.586 0-.727 1.485-.88 4.538-.466 12.49 1.692 14.57 1.816 14.57.867 0-1.58-8.39-4.824-17.143-6.63-14.074-2.904-27.639-.497-34.058 6.042-3.946 4.02-4.397 8.289-1.106 10.474 4.138 2.75 10.94 3.592 35.235 4.365 22.217.708 24.883.975 28.744 2.879 4.75 2.342 6.813 5.4 6.687 9.911-.104 3.745-2.566 7.74-4.768 7.74-3.728-.002-16.07-3.155-24.81-6.337-5.127-1.867-10.182-3.393-11.233-3.39-2.373.006-5.159 1.869-13.417 8.97-3.562 3.064-9.9 7.384-14.085 9.602-13.547 7.18-17.728 12.89-19.611 26.778-1.02 7.523-2.285 10.531-8.111 19.298-4.837 7.278-8.262 17.06-8.288 23.672-.013 3.192-1.133 8.307-2.984 13.625-2.45 7.04-3 10.199-3.178 18.247-.183 8.347-.56 10.378-2.648 14.27-1.503 2.802-2.692 6.994-3.11 10.963-.615 5.855-1.091 6.92-5.366 12.008-2.58 3.07-4.694 6.114-4.7 6.765-.004.65-1.305 2.688-2.891 4.528-3.645 4.23-5.432 9.08-3.914 10.625.807.822 1.46.556 2.561-1.047 2.095-3.047 3.297-2.68 2.34.716-.55 1.954-.452 3.024.306 3.361 1.439.64 6.872-.22 9.703-1.534zm73.121-204.172c-2.68-1.728-.125-2.18 3.973-.703l4.12 1.484-3.343.062c-1.84.034-3.977-.345-4.75-.843zm-137.84-1.188c7.405-2.75 7.883-3.099 7.883-5.755 0-1.555-.148-2.828-.329-2.828-.18 0-2.827.876-5.881 1.947-3.055 1.07-5.702 1.946-5.882 1.946-.18 0-.328-7.664-.328-17.032s-.151-17.032-.335-17.032c-.185 0-1.69.48-3.344 1.069l-3.009 1.068v20.447c0 19.082.112 20.403 1.672 19.772.92-.371 5.219-1.993 9.554-3.602zm269.654-16.274V48.542l-3.009-1.068c-1.655-.588-3.16-1.069-3.344-1.069-.184 0-.335 9.134-.335 20.298V87l3.105 1.015c1.708.558 3.212 1.06 3.344 1.114.131.055.239-9.055.239-20.244zm-14.55-5.622l-.259-20.126-2.627-.715-2.627-.715-.015 10.865c-.017 12.452-.113 12.415-5.835-2.274-4.192-10.765-5.556-12.652-9.14-12.652h-2.207v19.952c0 15.305.278 19.954 1.194 19.965.657.007 2.148.273 3.314.592 2.094.571 2.123.435 2.388-11.274l.27-11.853 5.224 13.278c2.873 7.302 5.883 13.67 6.687 14.15 3.798 2.267 3.901 1.723 3.633-19.193zM57.452 79.881c.333-.198.9-2.767 1.261-5.71.737-6.008.675-5.93 5.43-6.839l3.46-.661 1.156 4.91c1.134 4.818 1.214 4.9 4.176 4.327 1.66-.322 3.195-.737 3.409-.923.481-.417-8.58-36.623-9.372-37.447-.314-.327-1.888-.226-3.498.224-2.903.812-2.955.945-6.493 16.653a4693.126 4693.126 0 01-4.883 21.492l-1.316 5.658 3.032-.663c1.668-.364 3.305-.824 3.638-1.021zm4.14-19.75c.317-1.014.908-3.751 1.315-6.082l.74-4.237 1.259 5.219c1.06 4.392 1.051 5.353-.056 6.068-2.304 1.486-3.876 1.02-3.257-.967zm204.959-4.423c0-10.941-.323-20.078-.717-20.303-.394-.226-1.899-.698-3.344-1.05l-2.627-.64V74.5l2.627.406c1.445.223 2.95.47 3.344.551.394.08.717-8.807.717-19.749zM86.147 73.161c.93-.362 1.19-2.263.963-7.085-.17-3.625-.17-8.33 0-10.455.286-3.58.58-3.05 4.026 7.256l3.717 11.12 3.448-12.47 3.449-12.468.27 10.93c.234 9.399.479 10.85 1.75 10.352.814-.318 2.304-.578 3.312-.578 1.748 0 1.833-.936 1.833-20.243V29.277l-3.26.388c-3.195.38-3.313.56-5.786 8.807-1.389 4.631-3.087 10.172-3.774 12.313l-1.25 3.893-3.11-10.22c-1.71-5.62-3.445-10.591-3.857-11.047-.411-.456-2.08-.53-3.708-.166l-2.96.662v19.875c0 18.943.085 19.874 1.832 19.874 1.008 0 2.405-.222 3.105-.495zM252 52.488l-.259-20.195-2.627-.308-2.627-.308v15.724l-4.06-.579c-6.664-.95-6.45-.646-6.45-9.146 0-5.597-.338-7.82-1.193-7.83-.657-.007-2.162-.277-3.344-.6l-2.15-.587V69.55l3.344.398 3.344.398v-9.05c0-10.026-.313-9.646 6.926-8.427l3.583.604v9.047c0 7.798.23 9.108 1.672 9.492 4.213 1.122 4.111 1.64 3.84-19.524zM131.758 66.504c3.925-1.91 6.148-5.94 6.225-11.287.054-3.744-.403-5.345-1.99-6.963-2.046-2.085-2.048-2.121-.242-5.138 2.192-3.663 2.323-7.505.385-11.322-1.802-3.552-6.411-4.84-14.324-4.001l-5.732.607-.258 20.296-.259 20.296 6.946-.684c3.82-.376 7.982-1.188 9.249-1.804zM122.29 56.31c0-5.065.25-5.852 2.013-6.321 5.35-1.425 9.223 3.969 6.463 9.001-1.022 1.864-2.275 2.577-4.923 2.803l-3.553.302zm0-17.229v-5.328h3.153c3.82 0 5.445 1.475 5.445 4.942 0 3.094-1.302 4.307-5.493 5.116l-3.105.599zm97.111 27.27c2.532-1.689 4.145-6.9 4.153-13.407.006-5.118-.075-5.186-6.921-5.856l-4.538-.444v3.287c0 2.857.312 3.287 2.388 3.287 1.927 0 2.388.482 2.388 2.497 0 5.767-4.551 8.333-7.964 4.491-4.683-5.271-3.638-25.35 1.404-26.981 2.103-.68 5.605 1.873 5.605 4.085 0 .847 1.18 1.31 3.344 1.31 3.793 0 4.218-1.294 1.916-5.83-2.02-3.98-5.076-5.85-9.559-5.85-8.201 0-11.912 6.233-11.88 19.952.022 9.07 1.386 14.796 4.307 18.084 3.376 3.8 10.737 4.46 15.357 1.376zm-59.096-1.032c1.175-.838 3.073-3.356 4.219-5.596 2.995-5.858 3.053-20.563.106-27.118-2.008-4.467-5.902-7.612-9.427-7.612-3.339 0-7.84 3.134-9.922 6.909-4.44 8.048-3.572 25.86 1.565 32.079 1.997 2.418 3.06 2.862 6.844 2.862 2.519 0 5.413-.666 6.615-1.524zm-9.093-6.945c-1.234-1.917-1.771-5.02-1.978-11.436-.243-7.535.002-9.271 1.696-12.033 2.473-4.03 5.574-3.906 7.655.308 2.154 4.36 1.987 19.676-.252 23.158-2.16 3.358-4.96 3.359-7.121.003zm27.445-.6c0-8.22.087-8.571 2.044-8.273 1.628.247 2.647 2.048 4.995 8.826l2.951 8.516h7.144l-3.138-9.174-3.137-9.174 2.564-2.465c3.132-3.011 4.108-7.397 2.771-12.453-1.49-5.636-5.233-7.602-14.485-7.607L173 25.967l-.277 20.035c-.152 11.019-.204 20.106-.117 20.195.088.088 1.485.16 3.105.16h2.946v-8.584zm.716-14.852c-.394-.404-.716-3.128-.716-6.053V31.55l4.027.55c5.72.782 8.141 4.808 5.284 8.788-1.287 1.794-7.415 3.244-8.595 2.034zM.153 69.763c0-1.338.217-1.885.482-1.216.266.669.266 1.764 0 2.433-.265.669-.481.121-.481-1.217zm.136-8.76c0-2.943.18-4.148.398-2.676.219 1.473.219 3.881 0 5.353s-.398.268-.398-2.676z" fill="#5c4b21"/><path d="M160.844 369.907c-23.48-17.077-52.784-44.832-69.253-65.59-49.748-62.703-73.31-133.278-76.843-230.174-.94-25.752.362-28.916 14.35-34.881 36.58-15.599 83.615-23.4 140.96-23.378 43.224.017 73.41 3.42 106.524 12.012 15.004 3.893 36.014 11.323 41.328 14.616 3.968 2.458 6.683 7.011 7.527 12.62.84 5.59-1.069 45.019-3.018 62.32-10.07 89.386-42.294 158.562-100.817 216.422-18.797 18.584-47.27 41.492-51.572 41.492-.925 0-5.059-2.457-9.186-5.459zm-55.086-79.172c2.25-1.397 3.229-2.87 3.721-5.592.367-2.033 1.466-4.741 2.44-6.018 1.295-1.695 1.773-3.962 1.773-8.41 0-5.68.258-6.406 3.85-10.818 2.638-3.241 4.564-7.09 6.123-12.24 1.25-4.132 3.117-8.73 4.15-10.22 1.032-1.489 3.226-5.444 4.877-8.79 1.65-3.345 3.372-6.083 3.825-6.083 2.03 0 3.364 3.405 3.165 8.074-.255 5.965.42 8.472 2.282 8.472 1.206 0 1.197.385-.064 2.871-.802 1.58-1.458 3.412-1.458 4.073 0 2.974-4.227 9.698-7.323 11.647-1.852 1.166-4.326 3.044-5.498 4.173a82.435 82.435 0 01-4.209 3.747c-1.937 1.58-2.571 4.297-2.105 9.013.278 2.808 1.71 4.028 3.085 2.627 1.803-1.837 2.846-1.365 1.72.779-.927 1.763-.727 1.946 2.115 1.943 3.597-.004 9.349-3.209 9.349-5.208 0-1.344 6.76-15.057 9.121-18.502.684-.998 2.572-2.638 4.195-3.643 1.622-1.005 3.679-3.473 4.57-5.484 2.146-4.845 4.973-8.036 7.12-8.036.96 0 1.744.231 1.744.514 0 1.646-5.876 11.986-7.08 12.457-1.785.698-6.573 10.114-5.795 11.397.75 1.236 3.322 1.207 3.322-.037 0-.535.416-.973.925-.973.509 0 .661.701.338 1.558-.837 2.222 1.267 3.18 5.065 2.308 4.973-1.143 8.002-3.55 8.002-6.361 0-1.348.92-3.719 2.046-5.269 1.565-2.157 1.913-3.648 1.482-6.352-.552-3.469.802-8.269 2.333-8.269 1.104 0 3.296 4.6 4.637 9.733 1.871 7.163 2.605 7.574 13.5 7.574 7.235 0 9.834-.346 10.693-1.424.625-.783 1.963-2.345 2.974-3.47 1.314-1.463 1.882-3.637 1.991-7.62.128-4.651.692-6.335 3.416-10.197 4.084-5.789 12.046-11.628 13.815-10.132.674.57 2.37 3.948 3.768 7.505 2.304 5.861 2.435 6.859 1.399 10.628-.629 2.288-.915 5.377-.636 6.864s-.099 4.181-.839 5.986c-1.902 4.639-1.686 6.68.999 9.415 2.909 2.963 4.168 3.011 5.235.2l.831-2.19.902 2.384.901 2.384 2.536-2.584c2.86-2.913 3.168-5.415 1.154-9.383-.76-1.497-1.135-3.684-.833-4.86.301-1.174-.001-4.774-.673-8-.991-4.756-.992-7.368-.002-13.846 1.155-7.565 1.112-8.186-.812-11.843-3.071-5.839-2.711-6.398 2.757-4.282 8.273 3.203 16.97 1.87 20.405-3.127 2.405-3.496 2.004-4.794-1.274-4.126-5.074 1.033-9.12-.475-14.762-5.504l-5.426-4.837-.49-8.525c-.515-8.948-.54-14.153-.14-28.318.243-8.568.23-8.621-3.54-14.355-2.082-3.165-4.493-7.85-5.358-10.412-.866-2.56-2.528-5.691-3.695-6.956-2.02-2.19-2.048-2.445-.597-5.303 4.556-8.977 1.834-17.834-7.024-22.856l-5.172-2.933-24.445-.774c-31.002-.982-36.85-2.125-34.428-6.735 1.587-3.02 4.977-3.141 13.268-.473 8.41 2.706 17.644 3.29 22.845 1.443 3.498-1.243 3.114-2.825-.686-2.825-1.445 0-3.462-.68-4.482-1.51-1.736-1.414-1.612-1.477 1.967-.99 11.695 1.589 15.764 1.757 15.764.652 0-.628-1.827-1.933-4.06-2.9-13.829-5.993-31.357-6.646-41.388-1.541-5.094 2.592-9.963 7.66-9.963 10.37 0 1.794 4.658 5.529 8.237 6.605 2.038.612 14.882 1.538 28.544 2.058 26.816 1.02 31.316 1.85 34.861 6.442 2.577 3.337 2.469 8.28-.251 11.502l-2.172 2.572-7.446-1.567c-4.095-.861-11.178-2.93-15.74-4.596-14.308-5.225-14.38-5.213-25.723 4.44-3.834 3.263-11.346 8.369-16.692 11.346-13.604 7.574-16.348 11.937-18.454 29.337-.395 3.258-1.962 6.77-5.43 12.166-7.319 11.389-9.385 16.65-10.344 26.334-.496 5.014-2.028 11.898-3.733 16.776-2.407 6.886-2.893 9.761-2.904 17.153-.01 7.558-.357 9.514-2.326 13.139-1.271 2.342-2.585 6.449-2.918 9.125-1.026 8.25-1.358 9.068-5.685 14.032-2.31 2.65-4.512 5.832-4.892 7.072-.38 1.24-1.916 3.686-3.414 5.435-3.037 3.547-4.244 7.144-3.258 9.713.572 1.49.956 1.338 3.056-1.215l2.403-2.92-.609 3.65-.608 3.65 4.103-.004c2.38-.002 5.386-.8 7.157-1.9zm73.337-204.491c-.991-1.634-.214-1.718 3.383-.367l3.344 1.257-3.049.074c-1.676.04-3.331-.393-3.678-.964zM32.824 169.765c-4.47-23.365-7.416-49.877-8.893-80.05-1.554-31.738-1.59-32.104-3.375-34.881-.916-1.424-2.046-2.59-2.511-2.59-2.767 0 .841 55.21 5.47 83.7 2.653 16.335 8.609 40.877 9.92 40.877.406 0 .132-3.175-.611-7.056zM49.68 79.252c0-2.007-.146-3.65-.326-3.65-.18 0-2.83.878-5.89 1.95-3.058 1.072-5.781 1.723-6.052 1.448-.27-.275-.685-7.722-.922-16.548-.237-8.826-.777-16.047-1.2-16.047-.423 0-1.872.427-3.22.95l-2.45.948v41.809l10.029-3.605 10.029-3.605.002-3.65zM309.8 48.246c-.404-.402-1.918-1.027-3.363-1.39l-2.627-.662v41.082l3.105 1.292 3.105 1.291.258-20.442c.142-11.243-.073-20.77-.477-21.171zM297.123 63.98c0-11.21-.322-20.574-.716-20.81-.394-.237-2.155-.745-3.914-1.13l-3.198-.698.332 9.831c.182 5.408.116 9.829-.146 9.825-.263-.004-2.31-4.713-4.55-10.464-4.986-12.804-4.784-12.49-8.587-13.33l-3.105-.687v20.458c0 11.252.323 20.643.717 20.868.394.225 1.899.697 3.344 1.05l2.627.639V68.127c0-6.273.358-10.99.797-10.48.438.508 2.876 6.33 5.418 12.94 4.5 11.696 5.792 13.507 9.787 13.713.92.048 1.194-4.63 1.194-20.319zM55.24 81.358c2.656-.943 3.094-1.666 4.069-6.712.999-5.172 1.338-5.706 3.972-6.242 4.317-.88 4.339-.866 4.994 3.082.939 5.664 1.497 6.167 5.572 5.021 1.948-.548 3.54-1.228 3.54-1.513 0-.284-1.66-6.723-3.691-14.31-2.031-7.585-4.266-16.107-4.967-18.937-1.247-5.036-1.335-5.131-4.19-4.52-1.603.343-3.225.915-3.603 1.271-.693.652-10.281 40.43-10.293 42.701-.007 1.49.773 1.517 4.597.16zm7.232-22.485c.322-1.638.585-3.668.585-4.512 0-2.457 1.595-.029 2.218 3.378.464 2.535.221 3.152-1.414 3.587-1.759.469-1.91.202-1.389-2.453zm261.317 3.59c.06-7.013-.596-11.192-1.756-11.192-.364 0-1.434.576-2.379 1.28-1.645 1.225-1.649 1.733-.093 11.922.894 5.854 1.87 11.3 2.17 12.103.787 2.108 1.99-6.146 2.058-14.112zm-57.238-6.69V34.969l-3.019-.615c-1.66-.338-3.106-.502-3.212-.365-.107.138-.477 9.292-.823 20.344l-.63 20.093 3.603.975c1.982.535 3.71 1.02 3.842 1.074.131.056.239-9.26.239-20.702zM85.747 74.016c2.032-.555 2.155-1.1 2.24-9.962l.092-9.376 3.105 9.5c1.707 5.226 3.337 9.738 3.622 10.028.284.29 1.387-2.453 2.452-6.094a14441.5 14441.5 0 003.352-11.488l1.418-4.866.1 9.823.1 9.822 3.582-.598 3.583-.6-.36-20.416c-.196-11.229-.472-20.55-.61-20.715-.14-.164-1.684.079-3.431.54-3.099.818-3.259 1.122-6.51 12.352l-3.333 11.513-3.472-10.593c-3.426-10.457-3.506-10.589-6.253-10.266-1.53.18-3.08.618-3.445.973-.364.356-.794 9.735-.955 20.843-.316 21.819-.511 21.01 4.723 19.58zm167.429-20.74c0-11.21-.323-20.582-.717-20.828-.394-.245-2.006-.6-3.583-.787l-2.866-.341-.279 7.542c-.277 7.485-.299 7.543-2.866 7.53-6.45-.033-6.788-.466-7.088-9.093l-.276-7.926-3.105-.305-3.105-.305V49.16c0 21.815-.053 21.578 4.82 21.578 1.609 0 1.825-.939 2.07-9.002l.276-9.001 3.821.336c2.102.185 4.144.54 4.538.786.394.248.717 4.557.717 9.577v9.127l3.105.392c1.707.216 3.427.463 3.821.549.394.085.717-9.016.717-20.226zM131.584 67.261c6.255-2.585 8.93-12.18 5.155-18.486-1.541-2.575-1.606-3.232-.474-4.81 1.792-2.496 1.662-10.243-.219-12.978-2.309-3.358-5.74-4.25-13.5-3.509l-6.944.663v41.675l6.45-.64c3.546-.352 7.836-1.214 9.532-1.915zm-8.907-6.633c-.279-.742-.373-3.26-.208-5.597.27-3.845.553-4.277 2.984-4.56 3.75-.439 5.435 1.361 5.435 5.809 0 3.181-.398 3.952-2.45 4.747-3.385 1.311-5.163 1.188-5.76-.4zm-.387-21.418c0-3.71.305-4.352 2.312-4.865 3.224-.824 5.247.185 5.93 2.96.77 3.123-1.963 6.18-5.524 6.18-2.575 0-2.718-.226-2.718-4.275zm95.924 28.47c3.458-1.604 5.345-6.458 5.345-13.748v-6.29l-4.432-.619c-6.96-.972-7.032-.943-7.032 2.788 0 2.757.364 3.406 1.91 3.406 2.777 0 2.809 7.364.036 8.26-4.853 1.57-7.664-3.873-7.673-14.86-.007-8.167 1.922-12.865 5.283-12.865 1.935 0 2.777.693 3.626 2.983 1.02 2.755 1.362 2.935 4.455 2.347 1.842-.35 3.482-.77 3.644-.932.162-.162-.323-1.801-1.078-3.643-4.193-10.223-16.575-10.997-20.785-1.3-2.541 5.851-3.31 15.223-1.84 22.436 1.61 7.9 6.504 13.146 12.264 13.146 2.14 0 4.963-.499 6.277-1.108zm-58.11-1.7c4.262-2.647 6.406-8.006 6.895-17.232.787-14.857-3.856-23.756-12.395-23.756-3.077 0-4.475.643-7.007 3.222-4.216 4.295-5.53 9.76-5.082 21.129.293 7.422.784 9.956 2.473 12.74 3.502 5.771 9.577 7.338 15.116 3.897zm-7.626-6.48c-4.9-4.993-4.036-25.159 1.166-27.192 6.082-2.378 8.963 20.618 3.372 26.912-1.93 2.173-2.637 2.216-4.538.28zm43.375 7.525c0-.435-1.282-4.656-2.85-9.38l-2.85-8.588 2.956-3.43c2.687-3.117 2.917-3.902 2.532-8.633-.714-8.764-5.466-11.985-17.7-11.996l-5.972-.006v41.85h7.643v-8.759c0-11.678 1.593-11.693 5.713-.055 2.71 7.657 3.385 8.752 5.61 9.1 4.518.707 4.918.699 4.918-.103zm-16.24-29.615v-5.214l3.31.394c4.166.495 5.5 2.114 5.114 6.208-.287 3.043-.535 3.243-4.365 3.526l-4.06.299zM25.757 46.16c.07-1.285-3.285-.78-5.55.836l-2.193 1.565 2.178 2.361 2.178 2.362 1.673-3.197c.92-1.758 1.692-3.525 1.714-3.926z" fill="#282928"/><path d="M155.698 365.265C88.532 313.799 46.991 250.603 27.731 170.592 19.985 138.41 15.29 98.66 15.29 65.275c0-18.22 1.28-20.226 16.968-26.575 50.404-20.397 125.21-27.581 197.99-19.014 36.836 4.337 83.445 17.894 90.783 26.408 2.979 3.456 3.671 5.42 1.649 4.677-.657-.24-2.18.336-3.385 1.283-2.184 1.717-2.186 1.743-.802 9.959.763 4.53 1.692 12.945 2.065 18.7.373 5.754 1 10.462 1.394 10.462 1.267 0 1.896-6.923 2.12-23.358l.219-16.059.334 13.139c.628 24.676-2.95 61.365-8.879 91.058-11.059 55.388-32.542 103.254-65.06 144.957-20.511 26.304-72.372 73.48-80.778 73.48-1.415 0-6.867-3.502-14.209-9.127zm23.05 1.208c12.465-8.202 24.653-18.635 38.717-33.142 19.285-19.893 30.458-33.169 34.322-40.78 1.18-2.326 1.125-2.774-.54-4.308-1.803-1.663-2.242-1.326-15.012 11.516-15.966 16.057-27.006 25.132-27.006 22.199 0-1.737-12.369-8.877-19.75-11.401-13.187-4.51-27.502-4.099-39.198 1.125l-4.97 2.22-1.59-5.522c-4.492-15.595-7.015-36.316-4.617-37.913.578-.385 2.248-3.434 3.71-6.775 1.9-4.34 4.08-7.312 7.631-10.403 3.008-2.617 5.32-5.562 5.852-7.451.904-3.212 5.132-7.236 6.934-6.6 1.556.55-1.872 7.507-6.22 12.626-2.089 2.458-4.37 5.877-5.07 7.6-1.107 2.722-1.072 3.337.266 4.7 1.416 1.443 1.597 1.419 2.248-.307.643-1.704.758-1.654 1.268.557.734 3.185 3.578 3.554 8.902 1.154 3.713-1.672 4.267-2.339 4.807-5.775.335-2.137 1.29-4.46 2.122-5.164 1.017-.86 1.434-2.575 1.271-5.236-.253-4.148.805-9.31 1.908-9.31 1.151 0 3.73 5.257 4.422 9.011.37 2.012 1.515 4.75 2.545 6.083 1.779 2.304 2.363 2.425 11.72 2.425h9.85l2.718-3.63c2.108-2.817 2.752-4.775 2.869-8.726.204-6.907 3.692-12.752 10.626-17.811l5.445-3.972 1.554 2.098c.854 1.154 2.467 4.684 3.583 7.844 1.584 4.486 1.817 6.317 1.058 8.35-.534 1.43-1.133 5.253-1.331 8.494-.199 3.241-.647 7.471-.997 9.401-.554 3.055-.3 3.778 1.97 5.596 3.29 2.636 4.11 2.62 5.184-.102.626-1.586.88-1.736.925-.544.102 2.78 1.994 3.051 4.508.646 2.04-1.951 2.31-2.869 1.823-6.184-.314-2.142-.942-6.74-1.395-10.22-.453-3.48-1.143-7.109-1.532-8.065-.39-.957-.165-5.777.5-10.712 1.153-8.555 1.114-9.164-.84-13.064-2.801-5.595-2.616-6.465.973-4.574 4.142 2.182 13.368 2.928 17.04 1.378 3.12-1.316 6.689-5.257 6.689-7.385 0-.956-1.156-1.147-4.538-.751-3.767.44-5.05.143-7.55-1.75a1161.987 1161.987 0 00-6.944-5.2c-3.74-2.777-3.905-3.114-3.397-6.928.304-2.278-.146-7.061-1.043-11.076-.867-3.887-1.32-8.433-1.005-10.103.314-1.67.997-5.138 1.518-7.707 1.305-6.45-.254-13.047-4.708-19.919-1.99-3.07-4.162-7.333-4.827-9.474-.665-2.142-2.042-5.103-3.06-6.581-1.781-2.587-1.79-2.876-.234-7.65 3.069-9.412-.094-17.066-8.85-21.414-4.253-2.112-6.158-2.314-27.97-2.958-20.968-.619-31.874-1.661-34.467-3.294-1.777-1.119-.849-4.39 1.562-5.51 2.052-.952 3.775-.683 10.748 1.68 8.887 3.012 18.238 3.632 23.409 1.553 3.436-1.381 2.664-2.61-2.131-3.39-2.084-.34-4.053-1.055-4.377-1.588-.813-1.34 1.223-1.219 8.535.509 5.911 1.396 11.051 1.167 11.051-.493 0-1.07-8.07-4.448-14.946-6.256-7.764-2.042-21.63-2.011-27.932.062-5.802 1.91-12.065 7.068-12.952 10.668-.801 3.253 1.874 6.39 6.89 8.075 2.013.677 15.185 1.732 30.31 2.429 28.426 1.31 31.022 1.81 34.336 6.63 2.18 3.172 1.865 7.998-.723 11.063-2.17 2.57-2.32 2.6-7.405 1.453-2.854-.644-10.794-3.028-17.645-5.298-9.656-3.199-13.092-3.948-15.286-3.332-1.556.436-6.054 3.631-9.995 7.1-3.967 3.49-11.339 8.545-16.514 11.323-13.168 7.069-17.206 12.567-18.834 25.648-.915 7.357-2.504 11.158-9.146 21.886-4.534 7.325-7.096 14.742-7.096 20.548 0 2.992-1.295 8.825-3.344 15.064-2.821 8.591-3.344 11.533-3.344 18.836 0 7.322-.367 9.38-2.385 13.368-1.312 2.592-2.63 6.903-2.928 9.579-.894 8.022-1.109 8.534-6.112 14.557-2.649 3.188-4.816 6.582-4.816 7.542s-.414 1.746-.92 1.746c-1.602 0-5.768 7.152-5.768 9.9 0 3.675 1.833 4.453 3.946 1.675l1.772-2.33-.59 3.164c-.512 2.748-.329 3.163 1.4 3.163 1.374 0 2.793 1.432 4.582 4.623 10.11 18.036 32.42 44.527 49.079 58.278 8.409 6.942 19.946 14.96 21.525 14.96.61 0 3.86-1.812 7.226-4.027zm-65.087-89.812c.523-1.4.903-4.704.845-7.34-.087-3.945.4-5.452 2.753-8.5 3.637-4.715 5.491-8.43 6.934-13.892 1.233-4.668 11.193-24.365 12.32-24.365 1.994 0 2.974 2.936 2.974 8.906 0 4.924.37 6.781 1.481 7.415 2.43 1.385-1.04 11.303-5.498 15.707-5.782 5.713-8.7 8.265-11.479 10.042-1.893 1.211-2.798 2.773-3.241 5.596-.338 2.155-.957 3.917-1.375 3.917-.418 0-2.088 1.139-3.712 2.53l-2.952 2.531zM179.612 86.31c-1.183-.78-1.1-.935.478-.89 1.05.03 2.77.43 3.821.89 1.75.766 1.71.84-.477.89-1.314.029-3.034-.372-3.822-.89zM44.304 210.155c-1.788-5.754-5.163-18.345-7.501-27.98-8.01-33.013-10.691-55.261-13.45-111.575-.468-9.574-1.002-12.974-2.408-15.33-2.125-3.56-3.719-3.909-3.812-.836-1.22 39.955 5.244 90.782 16.265 127.878 4.785 16.107 12.6 38.306 13.485 38.306.37 0-.79-4.708-2.579-10.463zm29.74-57.151c18.587-4.986 35.93-19.563 44.034-37.011.995-2.141 1.843-4.112 1.885-4.38.041-.267.888-3.114 1.88-6.326 1.34-4.329 1.816-8.86 1.843-17.519.042-13.096-.657-16.976-3.086-17.15-.91-.065.807-.486 3.815-.935 10.37-1.548 14.116-5.36 14.116-14.362 0-3.294-.577-5.53-1.834-7.105-1.718-2.152-1.733-2.412-.239-4.103 1.04-1.176 1.596-3.494 1.596-6.65 0-4.24-.389-5.197-3.12-7.683-3.29-2.995-7.557-3.595-15.749-2.215l-3.583.603V41.1c0 7.113-.26 13.625-.58 14.471-.318.847-1.608 1.54-2.866 1.54h-2.286V42.999c0-13.99-.018-14.112-2.15-14.1-5.568.035-5.976.577-9.346 12.41l-3.221 11.307-3.358-10.41-3.358-10.409-3.375.62c-1.856.34-3.698.805-4.092 1.034-.394.23-.716 6.475-.716 13.88v13.462l-2.527.646c-1.39.355-2.831.293-3.204-.138-.372-.431-2.01-5.982-3.637-12.335-1.629-6.354-3.152-11.747-3.386-11.985-.235-.239-1.948-.143-3.807.212l-3.38.646L57.8 48.692c-4.543 19.627-3.656 17.805-9.324 19.154-2.752.656-6.401 1.77-8.109 2.478l-3.105 1.286V58.417c0-11.67-.176-13.125-1.522-12.598-.837.327-2.578.865-3.87 1.195l-2.349.6.367 22.024c.405 24.293 1.629 33.088 7.75 55.714 4.675 17.273 8.89 28.033 11.422 29.158 2.852 1.267 18.067.35 24.984-1.506zm-11.567-93.54c.32-.846.58-2.467.58-3.6 0-2.66 1.463-1.081 2.283 2.463.528 2.279.317 2.677-1.412 2.677-1.46 0-1.868-.433-1.45-1.54zm60.768-3.213c0-4.053.305-4.834 2.066-5.303 3.319-.884 5.577.955 5.577 4.543 0 3.895-1.458 5.513-4.968 5.513-2.564 0-2.675-.196-2.675-4.753zm-34.711 3.13c-.35-.356-.624-1.341-.608-2.189.024-1.266.21-1.223 1.043.235 1.028 1.802.73 3.142-.435 1.955zm12.889-3.243c0-1.339.217-1.886.482-1.217.265.67.265 1.764 0 2.433-.265.67-.482.122-.482-1.216zm21.822-17.032c0-4.357.018-4.38 3.344-4.38 3.356 0 3.894.772 3.391 4.866-.232 1.892-2.806 3.893-5.007 3.893-1.41 0-1.728-.803-1.728-4.38zm184.332 88.137c2.685-6.811 6.763-31.535 6.71-40.685-.02-3.485-.73-7.074-1.879-9.495-1.528-3.225-1.851-6.08-1.878-16.626l-.032-12.732-3.316-1.037-3.315-1.036-.267 11.822c-.253 11.195-.369 11.807-2.178 11.533-4.308-.653-4.3-.625-4.3-13.67V42.755l-2.985-.608c-1.642-.334-3.362-.608-3.821-.608-.46 0-.853 4.27-.873 9.49l-.037 9.488-4.353-10.705c-2.394-5.889-4.635-10.989-4.979-11.334-.344-.345-2.023-.927-3.73-1.294l-3.106-.666v12.73c0 12.634-.016 12.73-2.197 12.73-4.004 0-4.49-1.592-4.49-14.68 0-11.98-.064-12.362-2.15-12.932-5.593-1.527-5.493-1.756-5.493 12.64v13.252l-2.15-.587c-1.182-.323-2.472-.593-2.866-.6-.394-.008-.716-6.09-.716-13.517V32.05l-2.986-.609c-1.642-.334-3.362-.608-3.821-.608-.46 0-.836 3.504-.836 7.786 0 8.4.052 8.332-5.576 7.185l-2.95-.6-.275-7.916-.275-7.915-3.583-.302-3.583-.302v41.755l3.373.4c1.855.221 3.575.196 3.822-.055.246-.251.448-4.326.448-9.054 0-9.292-.098-9.152 5.613-7.989l2.986.608.06 7.422c.067 8.243 1.398 26.78 2.14 29.806 3.695 15.075 15.557 29.011 29.457 34.608 7.362 2.964 11.68 3.696 21.086 3.573 7.989-.104 8.358-.207 9.301-2.6zM281.414 63.68c-.998-3.348-1.23-5.548-.538-5.112 1.285.809 2.887 6.329 1.836 6.329-.514 0-1.099-.547-1.298-1.217zm-61.923 3.585c3.075-2.052 4.068-5.232 4.068-13.024 0-7.395-.403-7.795-7.882-7.823-3.545-.013-3.582.028-3.582 3.88 0 3.244.318 3.893 1.91 3.893 1.468 0 1.911.649 1.911 2.8 0 4.1-2.222 5.64-5.234 3.63-3.016-2.014-3.842-5.08-3.842-14.26 0-11.141 4.25-16.32 7.926-9.66 1.392 2.522 2.113 2.91 4.972 2.677 3-.244 3.325-.548 3.162-2.96-.427-6.33-7.941-11.639-14.208-10.037-3.753.96-7.648 5.642-8.897 10.694-2.334 9.445-.587 22.534 3.76 28.163 3.448 4.466 10.868 5.41 15.936 2.027zm-58.21-1.878c4.01-3.437 6.05-9.358 6.197-17.99.242-14.255-4.205-22.404-12.228-22.404-8.46 0-13.358 8.032-13.358 21.899 0 9.02 2.166 15.96 5.92 18.968 3.565 2.858 9.841 2.637 13.47-.473zm-9.496-6.963c-.86-1.055-1.405-4.818-1.582-10.95-.299-10.328.807-14 4.374-14.522 3.504-.512 5.272 5.227 4.788 15.54-.408 8.7-1.538 11.539-4.592 11.539-.923 0-2.267-.723-2.988-1.607zm27.625.39c.37-11.38 1.927-11.317 5.986.243l3.076 8.76h4.168c2.293 0 4.154-.11 4.136-.244-.018-.133-1.447-4.338-3.175-9.343l-3.142-9.1 2.697-2.747c2.245-2.287 2.697-3.57 2.697-7.643 0-10.09-3.289-12.965-15.524-13.57l-8.36-.415v20.963c0 22.336-.035 22.178 4.777 21.8 2.328-.183 2.395-.402 2.664-8.704zm.202-21.168c0-4.857.007-4.866 3.153-4.866 3.797 0 5.445 1.473 5.445 4.866s-1.648 4.866-5.445 4.866c-3.147 0-3.153-.01-3.153-4.866zM23.887 51.926c0-.647 1.09-2.81 2.423-4.808 1.942-2.911 2.124-3.633.917-3.633-1.655 0-9.072 3.63-9.072 4.44 0 .278.928 1.784 2.062 3.348 2.002 2.757 3.67 3.054 3.67.654zm55.619-22.519c39.997-6.572 79.633-8.634 121.602-6.325 17.148.944 46.23 3.822 57.8 5.72 5.017.823 6.65.696 5.544-.431-.819-.834-23.246-5.088-35.16-6.669-22.35-2.966-40.04-3.764-72.077-3.254-33.342.53-47.426 1.773-69.318 6.112-16.217 3.214-29.88 7.246-24.553 7.246.859 0 8.132-1.08 16.162-2.399z" fill="#040404"/></svg>